<svg xmlns="http://www.w3.org/2000/svg" xmlns:xlink="http://www.w3.org/1999/xlink" width="1080" zoomAndPan="magnify" viewBox="0 0 810 809.999993" height="1080" preserveAspectRatio="xMidYMid meet" version="1.0"><defs><clipPath id="b3fd415284"><path d="M 0 0 L 809 0 L 809 378.75 L 0 378.75 Z M 0 0 " clip-rule="nonzero"/></clipPath><clipPath id="02bbf10226"><path d="M 0 116 L 810 116 L 810 378.75 L 0 378.75 Z M 0 116 " clip-rule="nonzero"/></clipPath></defs><g clip-path="url(#b3fd415284)"><path fill="#e9e8e9" d="M 0.566406 0 L 0.566406 378.53125 L 77.085938 378.53125 L 77.085938 343.457031 L 124.695312 343.457031 C 127.980469 343.457031 130.875 341.746094 132.441406 338.878906 C 134.019531 335.984375 133.890625 332.589844 132.097656 329.804688 C 124.207031 317.449219 115.804688 298.378906 120.578125 277.691406 C 124.71875 259.761719 138.09375 243.777344 160.335938 230.183594 C 189.34375 212.472656 236.78125 199.71875 274.894531 189.472656 C 287.6875 186.03125 299.769531 182.78125 309.347656 179.804688 C 350.117188 167.167969 377.425781 154.808594 403.6875 126.523438 C 403.832031 127.65625 403.921875 128.804688 403.921875 129.964844 C 403.921875 130.347656 404.230469 130.65625 404.613281 130.65625 C 405 130.65625 405.308594 130.347656 405.308594 129.964844 C 405.308594 128.777344 405.410156 127.601562 405.566406 126.445312 C 417.773438 139.621094 430.53125 149.703125 445.566406 158.019531 C 459.621094 165.824219 475.898438 172.339844 499.984375 179.804688 C 509.558594 182.78125 521.636719 186.03125 534.429688 189.46875 C 572.542969 199.71875 619.980469 212.472656 648.96875 230.179688 C 671.214844 243.773438 684.59375 259.753906 688.734375 277.679688 C 693.511719 298.363281 685.101562 317.441406 677.207031 329.800781 C 675.414062 332.589844 675.285156 335.984375 676.863281 338.878906 C 678.429688 341.746094 681.324219 343.457031 684.605469 343.457031 L 732.21875 343.457031 L 732.21875 378.53125 L 808.660156 378.53125 L 808.660156 0 Z M 807.375 11.175781 L 795.839844 11.175781 L 786.203125 20.8125 L 786.203125 7.195312 L 780.316406 1.285156 L 807.375 1.285156 Z M 799.410156 101.46875 C 799.027344 101.46875 798.71875 101.777344 798.71875 102.160156 C 798.71875 102.546875 799.027344 102.855469 799.410156 102.855469 C 802.183594 102.855469 804.859375 103.289062 807.375 104.097656 L 807.375 116.832031 L 795.839844 116.832031 L 786.203125 126.46875 L 786.203125 112.824219 L 775.539062 102.160156 L 786.203125 91.5 L 786.203125 77.878906 L 795.839844 87.515625 L 807.375 87.515625 L 807.375 100.222656 C 804.859375 101.035156 802.183594 101.46875 799.410156 101.46875 Z M 807.375 101.691406 L 807.375 102.632812 C 806.789062 102.464844 806.207031 102.292969 805.605469 102.160156 Z M 799.410156 207.125 C 799.027344 207.125 798.71875 207.433594 798.71875 207.816406 C 798.71875 208.203125 799.027344 208.511719 799.410156 208.511719 C 802.183594 208.511719 804.859375 208.945312 807.375 209.753906 L 807.375 222.464844 L 795.839844 222.464844 L 786.203125 232.097656 L 786.203125 218.480469 L 775.539062 207.816406 L 786.203125 197.152344 L 786.203125 183.511719 L 795.839844 193.144531 L 807.375 193.144531 L 807.375 205.878906 C 804.859375 206.691406 802.183594 207.125 799.410156 207.125 Z M 807.375 207.347656 L 807.375 208.289062 C 806.789062 208.117188 806.207031 207.949219 805.605469 207.816406 Z M 799.410156 312.753906 C 799.027344 312.753906 798.71875 313.089844 798.71875 313.449219 L 798.71875 313.472656 C 798.71875 313.832031 799.027344 314.167969 799.410156 314.167969 C 802.183594 314.167969 804.859375 314.601562 807.375 315.390625 L 807.375 328.121094 L 795.839844 328.121094 L 786.203125 337.753906 L 786.203125 324.136719 L 775.539062 313.472656 L 775.539062 313.449219 L 786.203125 302.785156 L 786.203125 289.167969 L 795.839844 298.800781 L 807.375 298.800781 L 807.375 311.53125 C 804.859375 312.320312 802.183594 312.753906 799.410156 312.753906 Z M 807.375 312.976562 L 807.375 313.945312 C 806.789062 313.773438 806.207031 313.605469 805.605469 313.472656 L 805.605469 313.449219 C 806.207031 313.316406 806.789062 313.144531 807.375 312.976562 Z M 733.503906 355.871094 L 747.25 355.871094 L 757.65625 366.277344 L 747.25 376.707031 L 733.503906 376.707031 Z M 720.582031 260.800781 L 710.328125 271.050781 L 695.886719 271.050781 L 685.457031 260.644531 L 695.886719 250.214844 L 710.328125 250.214844 L 720.582031 260.464844 L 720.398438 260.644531 Z M 663.996094 239.1875 L 658.324219 233.511719 L 658.324219 219.046875 L 668.574219 208.792969 L 668.753906 208.972656 L 668.910156 208.792969 L 679.160156 219.046875 L 679.160156 233.511719 L 669.0625 243.585938 C 667.457031 242.097656 665.769531 240.628906 663.996094 239.1875 Z M 615.925781 206.839844 L 608.730469 199.648438 C 612.226562 195.945312 614.769531 191.371094 615.925781 186.207031 C 617.058594 191.347656 619.601562 195.945312 623.121094 199.648438 Z M 624.097656 200.621094 C 627.773438 204.144531 632.394531 206.660156 637.535156 207.816406 C 632.394531 208.949219 627.773438 211.492188 624.097656 215.011719 L 616.902344 207.816406 Z M 614.925781 207.816406 L 611.386719 211.355469 C 607.027344 209.738281 602.5625 208.175781 598.035156 206.65625 C 601.671875 205.300781 604.980469 203.25 607.730469 200.621094 Z M 615.925781 208.820312 L 616.824219 209.691406 L 623.078125 215.945312 C 619.742188 214.5625 616.316406 213.214844 612.820312 211.902344 Z M 643.726562 208.511719 C 644.113281 208.511719 644.421875 208.203125 644.421875 207.816406 C 644.421875 207.433594 644.113281 207.125 643.726562 207.125 C 628.773438 207.125 616.621094 194.96875 616.621094 180.015625 C 616.621094 179.628906 616.3125 179.320312 615.925781 179.320312 C 615.539062 179.320312 615.234375 179.628906 615.234375 180.015625 C 615.234375 192.238281 607.09375 202.585938 595.953125 205.953125 C 588.464844 203.472656 580.816406 201.121094 573.1875 198.882812 L 574.917969 197.152344 L 574.917969 183.511719 L 584.554688 193.144531 L 601.253906 193.144531 L 601.253906 176.445312 L 591.621094 166.808594 L 605.261719 166.808594 L 615.925781 156.171875 L 626.589844 166.808594 L 640.207031 166.808594 L 630.570312 176.445312 L 630.570312 193.144531 L 647.273438 193.144531 L 656.933594 183.511719 L 656.933594 197.152344 L 667.597656 207.816406 L 656.933594 218.480469 L 656.933594 232.125 L 647.273438 222.464844 L 637.53125 222.464844 C 633.402344 220.417969 629.050781 218.441406 624.523438 216.535156 C 629.449219 211.585938 636.21875 208.511719 643.726562 208.511719 Z M 551.277344 192.699219 C 548.851562 192.035156 546.453125 191.382812 544.074219 190.738281 L 551.277344 183.511719 Z M 509.292969 155.167969 L 499.042969 165.421875 L 484.574219 165.421875 L 474.167969 154.988281 L 484.574219 144.558594 L 499.042969 144.558594 L 509.292969 154.808594 L 509.113281 154.988281 Z M 437.335938 151.582031 C 433.882812 149.371094 430.539062 147.03125 427.292969 144.558594 L 430.308594 144.558594 Z M 420.671875 132.96875 L 420.671875 118.21875 L 435.421875 118.21875 L 445.621094 128.421875 L 445.621094 143.171875 L 430.898438 143.171875 Z M 432.289062 144.558594 L 446.035156 144.558594 L 455.746094 154.296875 L 442 154.296875 Z M 403.636719 49.511719 L 393.386719 59.765625 L 378.945312 59.765625 L 368.511719 49.332031 L 378.945312 38.925781 L 393.386719 38.925781 L 403.636719 49.179688 L 403.484375 49.332031 Z M 357.617188 159.84375 L 353.480469 155.683594 L 365.285156 155.683594 C 362.777344 157.125 360.226562 158.511719 357.617188 159.84375 Z M 297.980469 155.167969 L 287.730469 165.421875 L 273.289062 165.421875 L 262.859375 154.988281 L 273.289062 144.558594 L 287.730469 144.558594 L 297.980469 154.808594 L 297.828125 154.988281 Z M 192.351562 207.816406 L 185.15625 215.011719 C 181.457031 211.492188 176.859375 208.949219 171.71875 207.816406 C 176.859375 206.660156 181.457031 204.144531 185.15625 200.621094 Z M 186.132812 199.648438 C 189.652344 195.945312 192.199219 191.347656 193.328125 186.183594 C 194.484375 191.347656 197.003906 195.945312 200.523438 199.648438 L 193.328125 206.839844 Z M 186.132812 215.988281 L 193.328125 208.792969 L 196.453125 211.921875 C 192.9375 213.242188 189.492188 214.597656 186.136719 215.988281 C 186.132812 215.988281 186.132812 215.988281 186.132812 215.988281 Z M 194.304688 207.816406 L 201.5 200.621094 C 204.289062 203.269531 207.59375 205.316406 211.242188 206.671875 C 206.707031 208.195312 202.234375 209.761719 197.871094 211.382812 Z M 194.023438 180.015625 C 194.023438 179.628906 193.714844 179.320312 193.328125 179.320312 C 192.941406 179.320312 192.632812 179.628906 192.632812 180.015625 C 192.632812 194.96875 180.480469 207.125 165.527344 207.125 C 165.140625 207.125 164.832031 207.433594 164.832031 207.816406 C 164.832031 208.203125 165.140625 208.511719 165.527344 208.511719 C 173.035156 208.511719 179.824219 211.605469 184.75 216.554688 C 180.234375 218.453125 175.898438 220.425781 171.777344 222.464844 L 161.957031 222.464844 L 152.320312 232.097656 L 152.320312 218.480469 L 141.628906 207.816406 L 152.320312 197.152344 L 152.320312 183.511719 L 161.957031 193.144531 L 178.683594 193.144531 L 178.683594 176.445312 L 169.023438 166.808594 L 182.664062 166.808594 L 193.328125 156.144531 L 203.992188 166.808594 L 217.636719 166.808594 L 208.179688 176.238281 L 207.972656 176.445312 L 207.972656 193.144531 L 224.703125 193.144531 L 234.335938 183.511719 L 234.335938 197.152344 L 236.085938 198.902344 C 228.457031 201.140625 220.8125 203.488281 213.320312 205.96875 C 202.171875 202.59375 194.023438 192.253906 194.023438 180.015625 Z M 140.207031 243.625 L 130.066406 233.511719 L 130.066406 219.046875 L 140.347656 208.792969 L 140.5 208.972656 L 140.679688 208.792969 L 150.933594 219.046875 L 150.933594 233.511719 L 144.96875 239.460938 C 143.304688 240.828125 141.722656 242.21875 140.207031 243.625 Z M 88.675781 260.464844 L 98.925781 250.214844 L 113.367188 250.214844 L 123.800781 260.644531 L 113.367188 271.050781 L 98.925781 271.050781 L 88.675781 260.800781 L 88.828125 260.644531 Z M 103.730469 238.597656 L 103.730469 223.851562 L 118.480469 223.851562 L 128.679688 234.078125 L 128.679688 248.824219 L 113.933594 248.824219 Z M 125.058594 261.339844 L 125.753906 261.339844 C 123.917969 264.503906 122.402344 267.742188 121.210938 271.050781 L 115.34375 271.050781 Z M 125.058594 259.953125 L 115.34375 250.214844 L 129.09375 250.214844 L 131.65625 252.777344 C 129.777344 255.125 128.085938 257.515625 126.589844 259.953125 Z M 128.679688 218.480469 L 128.679688 232.125 L 119.25 222.667969 L 119.046875 222.464844 L 102.34375 222.464844 L 102.34375 239.191406 L 111.980469 248.824219 L 98.335938 248.824219 L 87.671875 259.488281 L 77.007812 248.824219 L 63.390625 248.824219 L 73.027344 239.191406 L 73.027344 222.464844 L 56.324219 222.464844 L 46.664062 232.097656 L 46.664062 218.480469 L 36 207.816406 L 46.664062 197.152344 L 46.664062 183.511719 L 56.121094 192.941406 L 56.324219 193.144531 L 73.027344 193.144531 L 73.027344 176.445312 L 63.390625 166.808594 L 77.007812 166.808594 L 87.671875 156.144531 L 98.335938 166.808594 L 111.980469 166.808594 L 102.34375 176.445312 L 102.34375 193.144531 L 119.046875 193.144531 L 128.679688 183.511719 L 128.679688 197.152344 L 139.34375 207.816406 Z M 86.695312 260.800781 L 76.445312 271.050781 L 61.976562 271.050781 L 51.570312 260.644531 L 61.976562 250.214844 L 76.445312 250.214844 L 86.695312 260.464844 L 86.542969 260.644531 Z M 8.097656 314.246094 C 8.660156 314.21875 9.253906 314.167969 9.84375 314.167969 C 10.230469 314.167969 10.539062 313.832031 10.539062 313.472656 L 10.539062 313.449219 C 10.539062 313.089844 10.230469 312.753906 9.84375 312.753906 C 9.253906 312.753906 8.660156 312.703125 8.097656 312.675781 C 5.933594 312.539062 3.851562 312.113281 1.851562 311.488281 L 1.851562 298.800781 L 13.390625 298.800781 L 23.050781 289.167969 L 23.050781 302.785156 L 33.714844 313.449219 L 33.714844 313.472656 L 23.050781 324.136719 L 23.050781 337.753906 L 13.59375 328.324219 L 13.390625 328.121094 L 1.851562 328.121094 L 1.851562 315.433594 C 3.851562 314.808594 5.933594 314.382812 8.097656 314.246094 Z M 1.851562 313.964844 L 1.851562 312.957031 C 2.449219 313.132812 3.046875 313.316406 3.652344 313.449219 L 3.652344 313.472656 C 3.046875 313.605469 2.449219 313.789062 1.851562 313.964844 Z M 8.097656 208.589844 C 8.660156 208.5625 9.253906 208.511719 9.84375 208.511719 C 10.230469 208.511719 10.539062 208.203125 10.539062 207.816406 C 10.539062 207.433594 10.230469 207.125 9.84375 207.125 C 9.253906 207.125 8.660156 207.074219 8.097656 207.019531 C 5.933594 206.882812 3.851562 206.457031 1.851562 205.832031 L 1.851562 193.144531 L 13.390625 193.144531 L 23.050781 183.511719 L 23.050781 197.152344 L 33.714844 207.816406 L 23.050781 218.480469 L 23.050781 232.125 L 13.390625 222.464844 L 1.851562 222.464844 L 1.851562 209.777344 C 3.851562 209.152344 5.933594 208.726562 8.097656 208.589844 Z M 1.851562 208.308594 L 1.851562 207.324219 C 2.449219 207.503906 3.046875 207.683594 3.652344 207.816406 C 3.046875 207.949219 2.449219 208.132812 1.851562 208.308594 Z M 8.097656 102.957031 C 8.660156 102.90625 9.253906 102.855469 9.84375 102.855469 C 10.230469 102.855469 10.539062 102.546875 10.539062 102.160156 C 10.539062 101.777344 10.230469 101.46875 9.84375 101.46875 C 9.253906 101.46875 8.660156 101.417969 8.097656 101.390625 C 5.933594 101.25 3.851562 100.828125 1.851562 100.199219 L 1.851562 87.515625 L 13.390625 87.515625 L 23.050781 77.878906 L 23.050781 91.5 L 33.714844 102.160156 L 23.050781 112.824219 L 23.050781 126.46875 L 13.59375 117.039062 L 13.390625 116.832031 L 1.851562 116.832031 L 1.851562 104.148438 C 3.851562 103.523438 5.933594 103.097656 8.097656 102.957031 Z M 1.851562 102.652344 L 1.851562 101.667969 C 2.449219 101.847656 3.046875 102.027344 3.652344 102.160156 C 3.046875 102.292969 2.449219 102.476562 1.851562 102.652344 Z M 94.867188 4.703125 C 91.371094 8.375 88.828125 13 87.671875 18.140625 C 86.542969 13 84 8.375 80.476562 4.703125 L 83.894531 1.285156 L 91.449219 1.285156 Z M 93.453125 1.285156 L 98.832031 1.285156 C 97.789062 2.027344 96.789062 2.820312 95.867188 3.699219 Z M 79.5 3.699219 C 78.582031 2.820312 77.582031 2.027344 76.539062 1.285156 L 81.898438 1.285156 Z M 86.980469 24.308594 C 86.980469 24.691406 87.289062 25.027344 87.671875 25.027344 C 88.058594 25.027344 88.367188 24.691406 88.367188 24.308594 C 88.367188 14.582031 93.5625 6.050781 101.324219 1.285156 L 134.566406 1.285156 L 128.679688 7.195312 L 128.679688 20.8125 L 119.046875 11.175781 L 102.34375 11.175781 L 102.34375 27.878906 L 111.980469 37.515625 L 98.335938 37.515625 L 87.671875 48.175781 L 77.007812 37.515625 L 63.390625 37.515625 L 73.027344 27.878906 L 73.027344 11.175781 L 56.324219 11.175781 L 46.664062 20.8125 L 46.664062 7.195312 L 40.777344 1.285156 L 74.046875 1.285156 C 81.78125 6.050781 86.980469 14.582031 86.980469 24.308594 Z M 200.523438 4.703125 C 197.003906 8.375 194.484375 13 193.328125 18.140625 C 192.199219 13 189.652344 8.375 186.132812 4.703125 L 189.550781 1.285156 L 197.105469 1.285156 Z M 199.085938 1.285156 L 204.460938 1.285156 C 203.417969 2.027344 202.398438 2.820312 201.5 3.699219 Z M 185.15625 3.699219 C 184.238281 2.820312 183.230469 2.027344 182.191406 1.285156 L 187.574219 1.285156 Z M 192.632812 24.308594 C 192.632812 24.691406 192.941406 25.027344 193.328125 25.027344 C 193.714844 25.027344 194.023438 24.691406 194.023438 24.308594 C 194.023438 14.582031 199.21875 6.050781 206.957031 1.285156 L 240.222656 1.285156 L 234.335938 7.195312 L 234.335938 20.8125 L 224.703125 11.175781 L 207.972656 11.175781 L 207.972656 27.878906 L 217.636719 37.515625 L 203.992188 37.515625 L 193.328125 48.175781 L 182.664062 37.515625 L 169.023438 37.515625 L 178.476562 28.085938 L 178.683594 27.878906 L 178.683594 11.175781 L 161.957031 11.175781 L 152.320312 20.8125 L 152.320312 7.195312 L 146.433594 1.285156 L 179.703125 1.285156 C 187.4375 6.050781 192.632812 14.582031 192.632812 24.308594 Z M 306.179688 4.703125 C 302.660156 8.375 300.113281 13 298.984375 18.140625 C 297.828125 13 295.285156 8.375 291.789062 4.703125 L 295.207031 1.285156 L 302.761719 1.285156 Z M 304.738281 1.285156 L 310.117188 1.285156 C 309.074219 2.027344 308.074219 2.820312 307.15625 3.699219 Z M 290.789062 3.699219 C 289.871094 2.820312 288.871094 2.027344 287.824219 1.285156 L 293.203125 1.285156 Z M 298.289062 24.308594 C 298.289062 24.691406 298.597656 25.027344 298.984375 25.027344 C 299.371094 25.027344 299.679688 24.691406 299.679688 24.308594 C 299.679688 14.582031 304.875 6.050781 312.613281 1.285156 L 345.878906 1.285156 L 339.992188 7.195312 L 339.992188 20.8125 L 330.355469 11.175781 L 313.628906 11.175781 L 313.628906 27.878906 L 323.265625 37.539062 L 309.648438 37.539062 L 298.984375 48.175781 L 288.320312 37.515625 L 274.675781 37.515625 L 284.3125 27.878906 L 284.3125 11.175781 L 267.609375 11.175781 L 257.976562 20.8125 L 257.976562 7.195312 L 252.066406 1.285156 L 285.335938 1.285156 C 293.09375 6.050781 298.289062 14.582031 298.289062 24.308594 Z M 376.96875 38.925781 L 367.230469 48.640625 L 353.480469 48.640625 L 363.21875 38.925781 Z M 363.605469 37.515625 L 363.605469 22.792969 L 373.832031 12.566406 L 388.582031 12.566406 L 388.582031 27.3125 L 378.355469 37.515625 Z M 352.507812 47.664062 L 352.507812 33.890625 L 362.21875 24.179688 L 362.21875 37.925781 Z M 362.21875 22.199219 L 351.785156 32.632812 L 341.378906 22.199219 L 341.378906 7.761719 L 347.855469 1.285156 L 355.742188 1.285156 L 362.21875 7.761719 Z M 299.988281 49.179688 L 310.210938 38.925781 L 324.652344 38.925781 L 335.085938 49.332031 L 324.652344 59.765625 L 310.210938 59.765625 L 299.960938 49.511719 L 300.140625 49.332031 Z M 339.992188 37.539062 L 325.242188 37.539062 L 315.019531 27.3125 L 315.019531 12.566406 L 329.765625 12.566406 L 339.992188 22.792969 Z M 340.378906 38.925781 L 350.117188 48.640625 L 336.371094 48.640625 L 326.632812 38.925781 Z M 325.242188 61.152344 L 339.992188 61.152344 L 339.992188 75.902344 L 329.765625 86.128906 L 315.019531 86.128906 L 315.019531 71.378906 Z M 326.632812 59.765625 L 336.371094 50.027344 L 350.117188 50.027344 L 340.378906 59.765625 Z M 341.378906 60.742188 L 351.09375 51.03125 L 351.09375 64.777344 L 341.378906 74.515625 Z M 341.378906 37.925781 L 341.378906 24.179688 L 351.09375 33.890625 L 351.09375 47.664062 Z M 297.980469 49.511719 L 287.730469 59.765625 L 273.289062 59.765625 L 262.859375 49.332031 L 273.289062 38.925781 L 287.730469 38.925781 L 297.980469 49.179688 L 297.828125 49.332031 Z M 271.3125 144.558594 L 261.597656 154.296875 L 247.828125 154.296875 L 257.566406 144.558594 Z M 257.976562 143.171875 L 257.976562 128.421875 L 268.175781 118.21875 L 282.925781 118.21875 L 282.925781 132.96875 L 272.699219 143.171875 Z M 246.851562 153.320312 L 246.851562 139.546875 L 256.589844 129.808594 L 256.589844 143.582031 Z M 256.589844 127.855469 L 246.15625 138.289062 L 235.722656 127.855469 L 235.722656 113.414062 L 245.976562 103.136719 L 246.15625 103.316406 L 246.308594 103.136719 L 256.589844 113.414062 Z M 256.589844 166.398438 L 256.589844 180.171875 L 246.851562 170.433594 L 246.851562 156.660156 Z M 192.351562 155.167969 L 182.101562 165.421875 L 167.632812 165.421875 L 157.226562 154.988281 L 167.632812 144.558594 L 182.101562 144.558594 L 192.351562 154.808594 L 192.171875 154.988281 Z M 86.695312 155.167969 L 76.445312 165.421875 L 61.976562 165.421875 L 51.570312 154.988281 L 61.976562 144.558594 L 76.445312 144.558594 L 86.695312 154.808594 L 86.542969 154.988281 Z M 60.023438 250.214844 L 50.285156 259.953125 L 36.539062 259.953125 L 46.253906 250.214844 Z M 46.664062 248.824219 L 46.664062 234.078125 L 56.890625 223.851562 L 71.613281 223.851562 L 71.613281 238.597656 L 61.414062 248.824219 Z M 35.5625 258.949219 L 35.5625 245.203125 L 45.277344 235.464844 L 45.277344 249.238281 Z M 45.277344 233.511719 L 34.84375 243.917969 L 24.4375 233.511719 L 24.4375 219.046875 L 34.691406 208.792969 L 34.84375 208.972656 L 35 208.792969 L 45.277344 219.046875 Z M 33.175781 261.339844 L 23.4375 271.050781 L 9.691406 271.050781 L 19.429688 261.339844 Z M 9.691406 250.214844 L 23.4375 250.214844 L 33.175781 259.953125 L 19.429688 259.953125 Z M 24.4375 272.054688 L 34.152344 262.316406 L 34.152344 276.085938 L 24.4375 285.800781 Z M 24.4375 249.238281 L 24.4375 235.464844 L 34.152344 245.203125 L 34.152344 258.949219 Z M 34.84375 206.660156 L 34.691406 206.839844 L 24.4375 196.5625 L 24.4375 182.121094 L 34.871094 171.691406 L 45.277344 182.121094 L 45.277344 196.5625 L 35 206.839844 Z M 23.4375 59.765625 L 9.691406 59.765625 L 19.429688 50.027344 L 33.175781 50.027344 Z M 34.152344 51.03125 L 34.152344 64.777344 L 24.4375 74.515625 L 24.4375 60.742188 Z M 24.4375 76.492188 L 34.871094 66.0625 L 45.277344 76.46875 L 45.277344 90.933594 L 35 101.183594 L 34.84375 101.003906 L 34.691406 101.183594 L 24.4375 90.933594 Z M 86.695312 49.511719 L 76.445312 59.765625 L 61.976562 59.765625 L 51.570312 49.332031 L 61.976562 38.925781 L 76.445312 38.925781 L 86.695312 49.179688 L 86.542969 49.332031 Z M 46.664062 61.152344 L 61.414062 61.152344 L 71.613281 71.378906 L 71.613281 86.128906 L 56.890625 86.128906 L 46.664062 75.902344 Z M 46.277344 59.765625 L 36.539062 50.027344 L 50.285156 50.027344 L 60.023438 59.765625 Z M 61.414062 37.515625 L 46.664062 37.515625 L 46.664062 22.792969 L 56.890625 12.566406 L 71.613281 12.566406 L 71.613281 27.3125 Z M 60.023438 38.925781 L 50.285156 48.640625 L 36.539062 48.640625 L 46.277344 38.925781 Z M 45.277344 37.925781 L 35.5625 47.664062 L 35.5625 33.890625 L 45.277344 24.179688 Z M 45.277344 60.742188 L 45.277344 74.515625 L 35.5625 64.777344 L 35.5625 51.03125 Z M 34.84375 103.316406 L 35 103.136719 L 45.277344 113.414062 L 45.277344 127.855469 L 34.84375 138.289062 L 24.4375 127.855469 L 24.4375 113.414062 L 34.691406 103.136719 Z M 60.023438 144.558594 L 50.285156 154.296875 L 36.539062 154.296875 L 46.253906 144.558594 Z M 46.664062 143.171875 L 46.664062 128.421875 L 56.890625 118.21875 L 71.613281 118.21875 L 71.613281 132.96875 L 61.414062 143.171875 Z M 35.5625 153.320312 L 35.5625 139.546875 L 45.277344 129.808594 L 45.277344 143.582031 Z M 34.152344 139.546875 L 34.152344 153.320312 L 24.4375 143.582031 L 24.4375 129.808594 Z M 33.175781 154.296875 L 19.429688 154.296875 L 9.691406 144.558594 L 23.4375 144.558594 Z M 34.152344 156.660156 L 34.152344 170.433594 L 24.4375 180.171875 L 24.4375 166.398438 Z M 33.175781 155.683594 L 23.4375 165.421875 L 9.691406 165.421875 L 19.429688 155.683594 Z M 35.5625 170.433594 L 35.5625 156.660156 L 45.277344 166.398438 L 45.277344 180.171875 Z M 36.539062 155.683594 L 50.285156 155.683594 L 60.023438 165.421875 L 46.277344 165.421875 Z M 46.664062 166.808594 L 61.414062 166.808594 L 71.613281 177.007812 L 71.613281 191.757812 L 56.890625 191.757812 L 46.664062 181.558594 Z M 77.007812 143.171875 L 63.390625 143.171875 L 73.027344 133.535156 L 73.027344 116.832031 L 56.324219 116.832031 L 46.664062 126.46875 L 46.664062 112.824219 L 36 102.160156 L 46.664062 91.5 L 46.664062 77.855469 L 56.324219 87.515625 L 73.027344 87.515625 L 73.027344 70.789062 L 63.390625 61.152344 L 77.007812 61.152344 L 87.671875 50.488281 L 98.335938 61.152344 L 111.980469 61.152344 L 102.34375 70.789062 L 102.34375 87.515625 L 119.046875 87.515625 L 128.679688 77.855469 L 128.679688 91.5 L 139.34375 102.160156 L 128.679688 112.824219 L 128.679688 126.46875 L 119.046875 116.832031 L 102.34375 116.832031 L 102.34375 133.535156 L 111.980469 143.171875 L 98.335938 143.171875 L 87.671875 153.832031 Z M 88.675781 49.179688 L 98.925781 38.925781 L 113.367188 38.925781 L 123.800781 49.332031 L 113.367188 59.765625 L 98.925781 59.765625 L 88.675781 49.511719 L 88.828125 49.332031 Z M 192.351562 49.511719 L 182.101562 59.765625 L 167.632812 59.765625 L 157.203125 49.332031 L 167.632812 38.925781 L 182.101562 38.925781 L 192.351562 49.179688 L 192.171875 49.332031 Z M 152.320312 61.152344 L 167.070312 61.152344 L 177.269531 71.378906 L 177.269531 86.128906 L 162.546875 86.128906 L 152.320312 75.902344 Z M 151.910156 59.765625 L 142.171875 50.027344 L 155.941406 50.027344 L 165.679688 59.765625 Z M 167.070312 37.515625 L 152.320312 37.515625 L 152.320312 22.792969 L 162.546875 12.566406 L 177.269531 12.566406 L 177.269531 27.3125 Z M 165.679688 38.925781 L 155.941406 48.640625 L 142.171875 48.640625 L 151.910156 38.925781 Z M 150.933594 37.925781 L 141.195312 47.664062 L 141.195312 33.890625 L 150.933594 24.179688 Z M 150.933594 60.742188 L 150.933594 74.515625 L 141.195312 64.777344 L 141.195312 51.03125 Z M 150.933594 76.492188 L 150.933594 90.933594 L 140.679688 101.183594 L 140.5 101.003906 L 140.347656 101.183594 L 130.066406 90.933594 L 130.066406 76.46875 L 140.5 66.0625 Z M 165.679688 144.558594 L 155.941406 154.296875 L 142.195312 154.296875 L 151.910156 144.558594 Z M 152.320312 143.171875 L 152.320312 128.421875 L 162.546875 118.21875 L 177.269531 118.21875 L 177.269531 132.96875 L 167.070312 143.171875 Z M 141.195312 153.320312 L 141.195312 139.546875 L 150.933594 129.808594 L 150.933594 143.582031 Z M 150.933594 127.855469 L 140.5 138.289062 L 130.066406 127.855469 L 130.066406 113.414062 L 140.347656 103.164062 L 140.5 103.316406 L 140.679688 103.136719 L 150.933594 113.414062 Z M 129.09375 144.558594 L 138.832031 154.296875 L 125.058594 154.296875 L 115.34375 144.558594 Z M 113.933594 143.171875 L 103.730469 132.96875 L 103.730469 118.21875 L 118.480469 118.21875 L 128.679688 128.421875 L 128.679688 143.171875 Z M 130.066406 143.582031 L 130.066406 129.808594 L 139.804688 139.546875 L 139.804688 153.320312 Z M 139.804688 156.660156 L 139.804688 170.433594 L 130.066406 180.171875 L 130.066406 166.398438 Z M 115.34375 59.765625 L 125.058594 50.027344 L 138.832031 50.027344 L 129.09375 59.765625 Z M 128.679688 61.152344 L 128.679688 75.902344 L 118.480469 86.128906 L 103.730469 86.128906 L 103.730469 71.378906 L 113.933594 61.152344 Z M 139.804688 51.03125 L 139.804688 64.777344 L 130.066406 74.515625 L 130.066406 60.742188 Z M 139.804688 47.664062 L 130.066406 37.925781 L 130.066406 24.179688 L 139.804688 33.890625 Z M 138.832031 48.640625 L 125.058594 48.640625 L 115.34375 38.925781 L 129.09375 38.925781 Z M 128.679688 37.515625 L 113.933594 37.515625 L 103.730469 27.3125 L 103.730469 12.566406 L 118.480469 12.566406 L 128.679688 22.792969 Z M 88.675781 154.808594 L 98.925781 144.558594 L 113.367188 144.558594 L 123.800781 154.988281 L 113.367188 165.421875 L 98.925781 165.421875 L 88.675781 155.167969 L 88.828125 154.988281 Z M 113.957031 166.808594 L 128.679688 166.808594 L 128.679688 181.558594 L 118.480469 191.757812 L 103.730469 191.757812 L 103.730469 177.007812 Z M 115.34375 165.421875 L 125.058594 155.683594 L 138.832031 155.683594 L 129.09375 165.421875 Z M 130.066406 182.121094 L 140.5 171.691406 L 150.933594 182.121094 L 150.933594 196.5625 L 140.679688 206.839844 L 140.5 206.660156 L 140.347656 206.839844 L 130.066406 196.5625 Z M 141.195312 170.433594 L 141.195312 156.660156 L 150.933594 166.398438 L 150.933594 180.171875 Z M 142.195312 155.683594 L 155.941406 155.683594 L 165.679688 165.421875 L 151.910156 165.421875 Z M 152.320312 166.808594 L 167.070312 166.808594 L 177.269531 177.007812 L 177.269531 191.757812 L 162.546875 191.757812 L 152.320312 181.558594 Z M 182.664062 143.171875 L 169.023438 143.171875 L 178.476562 133.738281 L 178.683594 133.535156 L 178.683594 116.832031 L 161.957031 116.832031 L 152.320312 126.46875 L 152.320312 112.824219 L 141.628906 102.160156 L 152.320312 91.5 L 152.320312 77.878906 L 161.957031 87.515625 L 178.683594 87.515625 L 178.683594 70.789062 L 169.023438 61.152344 L 182.664062 61.152344 L 193.328125 50.488281 L 203.992188 61.152344 L 217.636719 61.152344 L 208.179688 70.582031 L 208 70.789062 L 208 87.515625 L 224.703125 87.515625 L 234.335938 77.878906 L 234.335938 91.5 L 245 102.160156 L 234.335938 112.824219 L 234.335938 126.46875 L 224.703125 116.832031 L 207.972656 116.832031 L 207.972656 133.535156 L 217.636719 143.171875 L 203.992188 143.171875 L 193.328125 153.832031 Z M 194.304688 49.179688 L 204.582031 38.925781 L 219.023438 38.925781 L 229.429688 49.332031 L 219.023438 59.765625 L 204.582031 59.765625 L 194.304688 49.511719 L 194.484375 49.332031 Z M 220.976562 59.765625 L 230.714844 50.027344 L 244.484375 50.027344 L 234.746094 59.765625 Z M 234.335938 61.152344 L 234.335938 75.902344 L 224.109375 86.128906 L 209.386719 86.128906 L 209.386719 71.378906 L 219.589844 61.152344 Z M 235.722656 60.742188 L 245.460938 51.03125 L 245.460938 64.777344 L 235.722656 74.515625 Z M 244.484375 48.640625 L 230.714844 48.640625 L 220.976562 38.925781 L 234.746094 38.925781 Z M 235.722656 37.925781 L 235.722656 24.179688 L 245.460938 33.890625 L 245.460938 47.664062 Z M 234.335938 37.515625 L 219.589844 37.515625 L 209.386719 27.3125 L 209.386719 12.566406 L 224.109375 12.566406 L 234.335938 22.792969 Z M 234.746094 144.558594 L 244.484375 154.296875 L 230.714844 154.296875 L 220.976562 144.558594 Z M 219.589844 143.171875 L 209.386719 132.96875 L 209.386719 118.21875 L 224.109375 118.21875 L 234.335938 128.421875 L 234.335938 143.171875 Z M 194.304688 154.808594 L 204.582031 144.558594 L 219.023438 144.558594 L 229.429688 154.988281 L 219.023438 165.421875 L 204.582031 165.421875 L 194.304688 155.167969 L 194.484375 154.988281 Z M 219.589844 166.808594 L 234.335938 166.808594 L 234.335938 181.558594 L 224.109375 191.757812 L 209.386719 191.757812 L 209.386719 177.007812 Z M 220.976562 165.421875 L 230.714844 155.683594 L 244.484375 155.683594 L 234.746094 165.421875 Z M 235.722656 166.398438 L 245.460938 156.660156 L 245.460938 170.433594 L 235.722656 180.171875 Z M 235.722656 143.582031 L 235.722656 129.808594 L 245.460938 139.546875 L 245.460938 153.320312 Z M 246.15625 101.003906 L 245.976562 101.183594 L 235.722656 90.933594 L 235.722656 76.46875 L 246.15625 66.0625 L 256.589844 76.492188 L 256.589844 90.933594 L 246.308594 101.183594 Z M 246.851562 64.777344 L 246.851562 51.03125 L 256.589844 60.742188 L 256.589844 74.515625 Z M 271.3125 38.925781 L 261.597656 48.640625 L 247.828125 48.640625 L 257.566406 38.925781 Z M 257.976562 37.515625 L 257.976562 22.792969 L 268.175781 12.566406 L 282.925781 12.566406 L 282.925781 27.3125 L 272.722656 37.515625 Z M 256.589844 37.925781 L 246.851562 47.664062 L 246.851562 33.890625 L 256.589844 24.179688 Z M 247.828125 50.027344 L 261.597656 50.027344 L 271.3125 59.765625 L 257.566406 59.765625 Z M 257.976562 61.152344 L 272.722656 61.152344 L 282.925781 71.378906 L 282.925781 86.128906 L 268.175781 86.128906 L 257.976562 75.902344 Z M 256.589844 7.761719 L 256.589844 22.199219 L 246.15625 32.632812 L 235.722656 22.199219 L 235.722656 7.761719 L 242.199219 1.285156 L 250.089844 1.285156 Z M 150.933594 7.761719 L 150.933594 22.199219 L 140.5 32.632812 L 130.066406 22.199219 L 130.066406 7.761719 L 136.566406 1.285156 L 144.457031 1.285156 Z M 45.277344 7.761719 L 45.277344 22.199219 L 34.84375 32.632812 L 24.4375 22.199219 L 24.4375 7.761719 L 30.914062 1.285156 L 38.800781 1.285156 Z M 34.152344 33.890625 L 34.152344 47.664062 L 24.4375 37.925781 L 24.4375 24.179688 Z M 33.175781 48.640625 L 19.429688 48.640625 L 9.691406 38.925781 L 23.4375 38.925781 Z M 23.050781 37.539062 L 8.300781 37.539062 L 1.851562 31.089844 L 1.851562 12.566406 L 12.824219 12.566406 L 23.050781 22.792969 Z M 6.324219 37.539062 L 1.851562 37.539062 L 1.851562 33.046875 Z M 7.710938 38.925781 L 8.097656 39.285156 L 18.144531 49.332031 L 7.710938 59.765625 L 1.851562 59.765625 L 1.851562 38.925781 Z M 6.324219 61.152344 L 1.851562 65.644531 L 1.851562 61.152344 Z M 8.300781 61.152344 L 23.050781 61.152344 L 23.050781 75.902344 L 12.824219 86.128906 L 1.851562 86.128906 L 1.851562 67.601562 Z M 12.824219 118.21875 L 23.050781 128.421875 L 23.050781 143.171875 L 8.300781 143.171875 L 8.097656 142.988281 L 1.851562 136.746094 L 1.851562 118.21875 Z M 6.324219 143.171875 L 1.851562 143.171875 L 1.851562 138.699219 Z M 7.710938 144.558594 L 18.144531 154.988281 L 7.710938 165.421875 L 1.851562 165.421875 L 1.851562 144.558594 Z M 6.324219 166.808594 L 1.851562 171.28125 L 1.851562 166.808594 Z M 8.097656 166.988281 L 8.300781 166.808594 L 23.050781 166.808594 L 23.050781 181.558594 L 12.824219 191.757812 L 1.851562 191.757812 L 1.851562 173.234375 Z M 12.824219 223.851562 L 23.050781 234.078125 L 23.050781 248.824219 L 8.300781 248.824219 L 1.851562 242.375 L 1.851562 223.851562 Z M 6.324219 248.824219 L 1.851562 248.824219 L 1.851562 244.355469 Z M 7.710938 250.214844 L 18.144531 260.644531 L 8.097656 270.691406 L 7.710938 271.050781 L 1.851562 271.050781 L 1.851562 250.214844 Z M 6.324219 272.464844 L 1.851562 276.9375 L 1.851562 272.464844 Z M 8.097656 272.644531 L 8.300781 272.464844 L 23.050781 272.464844 L 23.050781 287.214844 L 12.824219 297.414062 L 1.851562 297.414062 L 1.851562 278.886719 Z M 19.429688 365.582031 L 19.273438 365.425781 L 9.691406 355.871094 L 23.4375 355.871094 L 31.605469 364.039062 L 33.175781 365.582031 Z M 33.175781 366.996094 L 23.4375 376.707031 L 9.691406 376.707031 L 19.429688 366.996094 Z M 24.4375 354.867188 L 24.4375 341.121094 L 34.152344 350.832031 L 34.152344 364.605469 L 33.378906 363.808594 Z M 12.824219 329.507812 L 23.050781 339.734375 L 23.050781 354.480469 L 8.300781 354.480469 L 1.851562 348.03125 L 1.851562 329.507812 Z M 6.324219 354.480469 L 1.851562 354.480469 L 1.851562 349.988281 Z M 7.710938 355.871094 L 8.097656 356.230469 L 18.144531 366.277344 L 7.710938 376.707031 L 1.851562 376.707031 L 1.851562 355.871094 Z M 34.152344 367.972656 L 34.152344 377.246094 L 24.875 377.246094 Z M 46.277344 376.707031 L 36.539062 366.96875 L 50.285156 366.96875 L 60.023438 376.707031 Z M 44.839844 377.246094 L 35.5625 377.246094 L 35.5625 367.972656 Z M 35.5625 364.605469 L 35.5625 350.832031 L 45.277344 341.121094 L 45.277344 354.867188 L 36.875 363.296875 Z M 61.976562 376.707031 L 51.570312 366.277344 L 58.613281 359.261719 L 61.976562 355.871094 L 75.800781 355.871094 L 75.800781 376.707031 Z M 61.414062 354.480469 L 46.664062 354.480469 L 46.664062 339.734375 L 56.890625 329.507812 L 71.613281 329.507812 L 71.613281 344.253906 Z M 60.023438 355.871094 L 56.121094 359.773438 L 50.285156 365.582031 L 36.539062 365.582031 L 39.210938 362.910156 L 46.277344 355.871094 Z M 45.277344 339.140625 L 34.84375 349.574219 L 24.4375 339.140625 L 24.4375 324.703125 L 34.691406 314.449219 L 34.84375 314.605469 L 35 314.449219 L 45.277344 324.703125 Z M 34.84375 312.316406 L 34.691406 312.472656 L 24.4375 302.21875 L 24.4375 287.777344 L 34.871094 277.347656 L 45.277344 287.777344 L 45.277344 302.21875 L 35 312.472656 Z M 35.5625 276.085938 L 35.5625 262.316406 L 45.277344 272.054688 L 45.277344 285.800781 Z M 36.539062 261.339844 L 50.3125 261.339844 L 60.023438 271.050781 L 46.277344 271.050781 Z M 46.664062 272.464844 L 61.414062 272.464844 L 71.613281 282.664062 L 71.613281 297.414062 L 56.890625 297.414062 L 46.664062 287.1875 Z M 235.722656 196.5625 L 235.722656 182.121094 L 246.15625 171.691406 L 256.589844 182.121094 L 256.589844 193.101562 C 250.347656 194.816406 243.996094 196.59375 237.613281 198.453125 Z M 257.566406 165.421875 L 247.828125 155.683594 L 261.597656 155.683594 L 271.3125 165.421875 Z M 257.976562 183.511719 L 265.214844 190.75 C 262.824219 191.398438 260.414062 192.054688 257.976562 192.722656 Z M 288.320312 143.171875 L 274.675781 143.171875 L 284.3125 133.535156 L 284.3125 116.832031 L 267.609375 116.832031 L 257.976562 126.46875 L 257.976562 112.824219 L 247.3125 102.160156 L 257.976562 91.5 L 257.976562 77.878906 L 267.609375 87.515625 L 284.3125 87.515625 L 284.3125 70.789062 L 274.675781 61.152344 L 288.320312 61.152344 L 298.984375 50.515625 L 309.648438 61.152344 L 323.265625 61.152344 L 313.628906 70.789062 L 313.628906 87.515625 L 330.355469 87.515625 L 339.992188 77.878906 L 339.992188 91.5 L 350.65625 102.160156 L 339.992188 112.824219 L 339.992188 126.46875 L 330.355469 116.832031 L 313.628906 116.832031 L 313.628906 133.535156 L 323.265625 143.171875 L 309.648438 143.171875 L 298.984375 153.832031 Z M 336.371094 154.296875 L 326.632812 144.558594 L 340.378906 144.558594 L 345.902344 150.054688 L 350.117188 154.296875 Z M 350.117188 155.683594 L 340.378906 165.421875 L 326.632812 165.421875 L 336.371094 155.683594 Z M 325.242188 143.171875 L 315.019531 132.96875 L 315.019531 118.21875 L 329.765625 118.21875 L 339.992188 128.421875 L 339.992188 143.171875 Z M 341.378906 143.582031 L 341.378906 129.808594 L 351.09375 139.546875 L 351.09375 153.320312 Z M 299.960938 154.808594 L 310.210938 144.558594 L 324.652344 144.558594 L 335.085938 154.988281 L 324.652344 165.421875 L 310.210938 165.421875 L 299.960938 155.167969 L 300.140625 154.988281 Z M 325.242188 166.808594 L 339.992188 166.808594 L 339.992188 167.78125 C 332.386719 170.828125 324.296875 173.683594 315.558594 176.496094 Z M 341.378906 166.398438 L 351.09375 156.660156 L 351.09375 163.015625 C 347.949219 164.46875 344.703125 165.863281 341.378906 167.21875 Z M 356.335938 160.511719 C 355.078125 161.136719 353.789062 161.734375 352.507812 162.339844 L 352.507812 156.660156 Z M 352.507812 153.320312 L 352.507812 139.546875 L 362.21875 129.808594 L 362.21875 143.582031 Z M 378.355469 143.171875 L 363.605469 143.171875 L 363.605469 128.421875 L 373.832031 118.21875 L 388.582031 118.21875 L 388.582031 132.96875 Z M 378.945312 144.558594 L 382.046875 144.558594 C 378.675781 147.132812 375.234375 149.539062 371.710938 151.792969 Z M 376.96875 144.558594 L 367.230469 154.296875 L 353.480469 154.296875 L 363.21875 144.558594 Z M 362.21875 127.855469 L 351.785156 138.289062 L 341.378906 127.855469 L 341.378906 113.414062 L 351.632812 103.136719 L 351.785156 103.316406 L 351.964844 103.136719 L 362.21875 113.414062 Z M 351.785156 101.003906 L 351.632812 101.183594 L 341.378906 90.933594 L 341.378906 76.492188 L 351.8125 66.0625 L 362.21875 76.46875 L 362.21875 90.933594 L 351.964844 101.183594 Z M 352.507812 64.777344 L 352.507812 51.03125 L 362.21875 60.742188 L 362.21875 74.515625 Z M 353.480469 50.027344 L 367.230469 50.027344 L 376.96875 59.765625 L 363.21875 59.765625 Z M 363.605469 61.152344 L 378.355469 61.152344 L 388.582031 71.378906 L 388.582031 86.128906 L 373.832031 86.128906 L 363.605469 75.902344 Z M 393.953125 37.515625 L 380.332031 37.515625 L 389.96875 27.878906 L 389.96875 11.175781 L 373.265625 11.175781 L 363.605469 20.8125 L 363.605469 7.195312 L 357.71875 1.285156 L 390.988281 1.285156 C 398.722656 6.050781 403.921875 14.582031 403.921875 24.308594 C 403.921875 24.691406 404.230469 25.027344 404.613281 25.027344 C 405 25.027344 405.308594 24.691406 405.308594 24.308594 C 405.308594 14.582031 410.507812 6.050781 418.265625 1.285156 L 451.53125 1.285156 L 445.621094 7.195312 L 445.621094 20.8125 L 435.988281 11.175781 L 419.285156 11.175781 L 419.285156 27.878906 L 428.921875 37.515625 L 415.277344 37.515625 L 404.613281 48.175781 Z M 411.808594 4.703125 C 408.3125 8.375 405.769531 13 404.613281 18.140625 C 403.484375 13 400.941406 8.375 397.421875 4.703125 L 400.835938 1.285156 L 408.390625 1.285156 Z M 410.394531 1.285156 L 415.773438 1.285156 C 414.730469 2.027344 413.730469 2.820312 412.8125 3.699219 Z M 396.445312 3.699219 C 395.523438 2.820312 394.523438 2.027344 393.480469 1.285156 L 398.859375 1.285156 Z M 517.464844 4.703125 C 513.945312 8.375 511.425781 13 510.269531 18.140625 C 509.140625 13 506.597656 8.375 503.078125 4.703125 L 506.492188 1.285156 L 514.046875 1.285156 Z M 516.027344 1.285156 L 521.40625 1.285156 C 520.371094 2.027344 519.359375 2.820312 518.441406 3.699219 Z M 502.097656 3.699219 C 501.179688 2.820312 500.171875 2.027344 499.132812 1.285156 L 504.515625 1.285156 Z M 509.578125 24.308594 C 509.578125 24.691406 509.886719 25.027344 510.269531 25.027344 C 510.65625 25.027344 510.964844 24.691406 510.964844 24.308594 C 510.964844 14.582031 516.160156 6.050781 523.898438 1.285156 L 557.164062 1.285156 L 551.277344 7.195312 L 551.277344 20.8125 L 541.644531 11.175781 L 524.917969 11.175781 L 524.917969 27.878906 L 534.578125 37.539062 L 520.933594 37.539062 L 510.269531 48.203125 L 510.269531 48.175781 L 499.605469 37.515625 L 485.964844 37.515625 L 495.417969 28.085938 L 495.625 27.878906 L 495.625 11.175781 L 478.871094 11.175781 L 469.261719 20.8125 L 469.261719 7.195312 L 463.375 1.285156 L 496.644531 1.285156 C 504.378906 6.050781 509.578125 14.582031 509.578125 24.308594 Z M 623.121094 4.703125 C 619.601562 8.375 617.058594 13 615.925781 18.140625 C 614.769531 13 612.226562 8.375 608.730469 4.703125 L 612.148438 1.285156 L 619.703125 1.285156 Z M 621.683594 1.285156 L 627.058594 1.285156 C 626.015625 2.027344 625.015625 2.820312 624.097656 3.699219 Z M 607.730469 3.699219 C 606.8125 2.820312 605.8125 2.027344 604.769531 1.285156 L 610.144531 1.285156 Z M 615.234375 24.308594 C 615.234375 24.691406 615.539062 25.027344 615.925781 25.027344 C 616.3125 25.027344 616.621094 24.691406 616.621094 24.308594 C 616.621094 14.582031 621.816406 6.050781 629.554688 1.285156 L 662.820312 1.285156 L 656.933594 7.195312 L 656.933594 20.8125 L 647.273438 11.175781 L 630.570312 11.175781 L 630.570312 27.878906 L 640.207031 37.515625 L 626.589844 37.515625 L 615.925781 48.175781 L 605.261719 37.515625 L 591.621094 37.515625 L 601.253906 27.878906 L 601.253906 11.175781 L 584.554688 11.175781 L 574.917969 20.8125 L 574.917969 7.195312 L 569.03125 1.285156 L 602.277344 1.285156 C 610.035156 6.050781 615.234375 14.582031 615.234375 24.308594 Z M 728.75 4.703125 C 725.257812 8.375 722.714844 13 721.554688 18.140625 C 720.398438 13 717.882812 8.375 714.363281 4.703125 L 717.78125 1.285156 L 725.332031 1.285156 Z M 727.335938 1.285156 L 732.714844 1.285156 C 731.671875 2.027344 730.671875 2.820312 729.753906 3.699219 Z M 713.386719 3.699219 C 712.46875 2.820312 711.46875 2.027344 710.425781 1.285156 L 715.800781 1.285156 Z M 720.863281 24.308594 C 720.863281 24.691406 721.171875 25.027344 721.554688 25.027344 C 721.941406 25.027344 722.25 24.691406 722.25 24.308594 C 722.25 14.582031 727.449219 6.050781 735.207031 1.285156 L 768.476562 1.285156 L 762.566406 7.195312 L 762.566406 20.8125 L 752.929688 11.175781 L 736.226562 11.175781 L 736.226562 27.878906 L 745.863281 37.539062 L 732.21875 37.539062 L 721.554688 48.203125 L 710.894531 37.515625 L 697.273438 37.515625 L 706.910156 27.878906 L 706.910156 11.175781 L 690.210938 11.175781 L 680.546875 20.8125 L 680.546875 7.195312 L 674.660156 1.285156 L 707.929688 1.285156 C 715.664062 6.050781 720.863281 14.582031 720.863281 24.308594 Z M 776.082031 261.339844 L 789.828125 261.339844 L 799.566406 271.050781 L 785.792969 271.050781 Z M 784.816406 272.054688 L 784.816406 285.800781 L 775.078125 276.085938 L 775.078125 262.316406 Z M 775.078125 258.949219 L 775.078125 245.203125 L 784.816406 235.464844 L 784.816406 249.238281 Z M 776.082031 259.953125 L 785.792969 250.214844 L 799.566406 250.214844 L 789.828125 259.953125 Z M 784.816406 233.511719 L 774.359375 243.917969 L 763.976562 233.511719 L 763.976562 219.046875 L 774.230469 208.820312 L 774.359375 208.972656 L 774.5625 208.792969 L 784.816406 219.046875 Z M 762.976562 250.214844 L 772.714844 259.953125 L 758.941406 259.953125 L 749.230469 250.214844 Z M 747.84375 248.824219 L 737.617188 238.597656 L 737.617188 223.851562 L 752.363281 223.851562 L 762.566406 234.078125 L 762.566406 248.824219 Z M 763.976562 249.238281 L 763.976562 235.464844 L 773.691406 245.203125 L 773.691406 258.949219 Z M 773.691406 262.316406 L 773.691406 276.085938 L 763.976562 285.800781 L 763.976562 272.054688 L 769.324219 266.710938 Z M 774.359375 206.660156 L 774.230469 206.839844 L 763.976562 196.5625 L 763.976562 182.121094 L 774.359375 171.691406 L 784.816406 182.121094 L 784.816406 196.5625 L 774.5625 206.839844 Z M 720.582031 155.167969 L 710.328125 165.421875 L 695.886719 165.421875 L 685.457031 154.988281 L 695.886719 144.558594 L 710.328125 144.558594 L 720.582031 154.808594 L 720.398438 154.988281 Z M 614.925781 155.167969 L 604.671875 165.421875 L 590.230469 165.421875 L 579.800781 154.988281 L 590.230469 144.558594 L 604.671875 144.558594 L 614.925781 154.835938 L 614.769531 154.988281 Z M 551.691406 144.558594 L 561.402344 154.296875 L 547.65625 154.296875 L 537.917969 144.558594 Z M 536.53125 143.171875 L 526.328125 132.96875 L 526.328125 118.21875 L 541.050781 118.21875 L 551.277344 128.421875 L 551.277344 143.171875 Z M 552.667969 143.582031 L 552.667969 129.835938 L 562.378906 139.546875 L 562.378906 153.320312 Z M 562.378906 156.683594 L 562.378906 170.433594 L 552.667969 180.171875 L 552.667969 166.398438 Z M 552.667969 127.855469 L 552.667969 113.414062 L 562.917969 103.136719 L 563.097656 103.316406 L 563.253906 103.136719 L 573.53125 113.414062 L 573.53125 127.855469 L 563.097656 138.289062 Z M 511.246094 49.179688 L 521.523438 38.925781 L 535.964844 38.925781 L 546.398438 49.332031 L 535.964844 59.765625 L 521.523438 59.765625 L 511.246094 49.511719 L 511.425781 49.332031 Z M 561.429688 48.640625 L 547.65625 48.640625 L 537.917969 38.925781 L 551.691406 38.925781 Z M 552.667969 37.925781 L 552.667969 24.179688 L 562.378906 33.890625 L 562.378906 47.664062 Z M 562.378906 51.03125 L 562.378906 64.777344 L 552.667969 74.515625 L 552.667969 60.742188 Z M 551.277344 37.539062 L 536.53125 37.539062 L 526.328125 27.3125 L 526.328125 12.566406 L 541.050781 12.566406 L 551.277344 22.792969 Z M 536.53125 61.152344 L 551.277344 61.152344 L 551.277344 75.902344 L 541.050781 86.128906 L 526.328125 86.128906 L 526.328125 71.378906 Z M 537.917969 59.765625 L 547.65625 50.027344 L 561.429688 50.027344 L 551.691406 59.765625 Z M 552.667969 76.492188 L 563.097656 66.0625 L 573.53125 76.46875 L 573.53125 90.933594 L 563.253906 101.183594 L 563.097656 101.003906 L 562.917969 101.183594 L 552.667969 90.933594 Z M 614.925781 49.511719 L 604.671875 59.765625 L 590.230469 59.765625 L 579.800781 49.332031 L 590.230469 38.925781 L 604.671875 38.925781 L 614.925781 49.179688 L 614.769531 49.332031 Z M 574.917969 61.152344 L 589.667969 61.152344 L 599.867188 71.378906 L 599.867188 86.128906 L 585.117188 86.128906 L 574.917969 75.902344 Z M 574.507812 59.765625 L 564.769531 50.027344 L 578.539062 50.027344 L 588.253906 59.765625 Z M 589.667969 37.515625 L 574.917969 37.515625 L 574.917969 22.792969 L 585.117188 12.566406 L 599.867188 12.566406 L 599.867188 27.3125 Z M 588.253906 38.925781 L 578.539062 48.640625 L 564.769531 48.640625 L 574.507812 38.925781 Z M 573.53125 37.925781 L 563.792969 47.664062 L 563.792969 33.890625 L 573.53125 24.179688 Z M 573.53125 60.742188 L 573.53125 74.515625 L 563.792969 64.777344 L 563.792969 51.03125 Z M 588.253906 144.558594 L 578.539062 154.296875 L 564.769531 154.296875 L 574.507812 144.558594 Z M 574.917969 143.171875 L 574.917969 128.421875 L 585.117188 118.21875 L 599.867188 118.21875 L 599.867188 132.96875 L 589.667969 143.171875 Z M 563.792969 153.320312 L 563.792969 139.546875 L 573.53125 129.808594 L 573.53125 143.582031 Z M 563.792969 156.683594 L 573.53125 166.398438 L 573.53125 180.171875 L 563.792969 170.433594 Z M 564.769531 155.683594 L 578.539062 155.683594 L 588.253906 165.421875 L 574.507812 165.421875 Z M 574.917969 166.808594 L 589.667969 166.808594 L 599.867188 177.007812 L 599.867188 191.757812 L 585.117188 191.757812 L 574.917969 181.558594 Z M 605.261719 143.171875 L 591.621094 143.171875 L 601.253906 133.535156 L 601.253906 116.832031 L 584.554688 116.832031 L 574.917969 126.46875 L 574.917969 112.824219 L 564.253906 102.160156 L 574.917969 91.5 L 574.917969 77.878906 L 584.554688 87.515625 L 601.253906 87.515625 L 601.253906 70.789062 L 591.621094 61.152344 L 605.261719 61.152344 L 615.925781 50.515625 L 626.589844 61.152344 L 640.207031 61.152344 L 630.777344 70.609375 L 630.570312 70.789062 L 630.570312 87.515625 L 647.300781 87.515625 L 656.933594 77.878906 L 656.933594 91.5 L 667.597656 102.160156 L 656.933594 112.824219 L 656.933594 126.46875 L 647.273438 116.832031 L 630.570312 116.832031 L 630.570312 133.535156 L 640.207031 143.171875 L 626.589844 143.171875 L 615.925781 153.832031 Z M 616.929688 49.179688 L 627.15625 38.925781 L 641.59375 38.925781 L 652.027344 49.332031 L 641.621094 59.765625 L 627.15625 59.765625 L 616.902344 49.511719 L 617.082031 49.332031 Z M 720.582031 49.511719 L 710.328125 59.765625 L 695.886719 59.765625 L 685.457031 49.332031 L 695.886719 38.925781 L 710.328125 38.925781 L 720.582031 49.179688 L 720.398438 49.332031 Z M 680.546875 61.152344 L 695.296875 61.152344 L 705.523438 71.378906 L 705.523438 86.128906 L 690.773438 86.128906 L 680.546875 75.902344 Z M 680.164062 59.765625 L 670.425781 50.027344 L 684.195312 50.027344 L 693.910156 59.765625 Z M 695.296875 37.515625 L 680.546875 37.515625 L 680.546875 22.792969 L 690.773438 12.566406 L 705.523438 12.566406 L 705.523438 27.3125 Z M 693.910156 38.925781 L 684.171875 48.640625 L 670.425781 48.640625 L 680.164062 38.925781 Z M 679.160156 37.925781 L 669.449219 47.664062 L 669.449219 33.890625 L 679.160156 24.179688 Z M 679.160156 60.742188 L 679.160156 74.515625 L 669.449219 64.777344 L 669.449219 51.03125 Z M 679.160156 76.46875 L 679.160156 90.933594 L 668.910156 101.183594 L 668.753906 101.003906 L 668.574219 101.183594 L 658.324219 90.933594 L 658.324219 76.492188 L 668.753906 66.0625 Z M 693.910156 144.558594 L 684.171875 154.296875 L 670.425781 154.296875 L 680.164062 144.558594 Z M 680.546875 143.171875 L 680.546875 128.421875 L 690.773438 118.21875 L 705.523438 118.21875 L 705.523438 132.96875 L 695.296875 143.171875 Z M 669.449219 153.320312 L 669.449219 139.546875 L 679.160156 129.808594 L 679.160156 143.582031 Z M 679.160156 127.855469 L 668.753906 138.289062 L 658.324219 127.855469 L 658.324219 113.414062 L 668.574219 103.136719 L 668.753906 103.316406 L 668.910156 103.136719 L 679.160156 113.414062 Z M 657.347656 144.558594 L 667.058594 154.296875 L 653.3125 154.296875 L 643.574219 144.558594 Z M 642.1875 143.171875 L 631.960938 132.96875 L 631.960938 118.21875 L 646.707031 118.21875 L 656.933594 128.421875 L 656.933594 143.171875 Z M 658.324219 143.582031 L 658.324219 129.808594 L 668.035156 139.546875 L 668.035156 153.320312 Z M 668.035156 156.660156 L 668.035156 170.433594 L 658.324219 180.171875 L 658.324219 166.398438 Z M 643.574219 59.765625 L 653.3125 50.027344 L 667.058594 50.027344 L 657.347656 59.765625 Z M 656.933594 61.152344 L 656.933594 75.902344 L 646.707031 86.128906 L 631.960938 86.128906 L 631.960938 71.378906 L 642.1875 61.152344 Z M 668.035156 51.03125 L 668.035156 64.777344 L 658.324219 74.515625 L 658.324219 60.742188 Z M 668.035156 47.664062 L 658.324219 37.925781 L 658.324219 24.179688 L 668.035156 33.890625 Z M 667.058594 48.640625 L 653.3125 48.640625 L 643.574219 38.925781 L 657.347656 38.925781 Z M 656.933594 37.515625 L 642.1875 37.515625 L 631.960938 27.3125 L 631.960938 12.566406 L 646.707031 12.566406 L 656.933594 22.792969 Z M 616.902344 154.808594 L 627.15625 144.558594 L 641.59375 144.558594 L 652.027344 154.988281 L 641.59375 165.421875 L 627.15625 165.421875 L 616.902344 155.167969 L 617.082031 154.988281 Z M 642.1875 166.808594 L 656.933594 166.808594 L 656.933594 181.558594 L 646.707031 191.757812 L 631.960938 191.757812 L 631.960938 177.007812 Z M 643.574219 165.421875 L 653.3125 155.683594 L 667.058594 155.683594 L 657.320312 165.421875 Z M 658.324219 182.121094 L 668.753906 171.691406 L 679.160156 182.121094 L 679.160156 196.5625 L 668.910156 206.839844 L 668.753906 206.660156 L 668.574219 206.839844 L 658.324219 196.5625 Z M 669.449219 170.433594 L 669.449219 156.660156 L 679.160156 166.398438 L 679.160156 180.144531 Z M 670.425781 155.683594 L 684.195312 155.683594 L 693.910156 165.421875 L 680.164062 165.421875 Z M 680.546875 166.808594 L 695.296875 166.808594 L 705.523438 177.007812 L 705.523438 191.757812 L 690.773438 191.757812 L 680.546875 181.558594 Z M 710.894531 143.171875 L 697.273438 143.171875 L 706.910156 133.535156 L 706.910156 116.832031 L 690.210938 116.832031 L 680.546875 126.46875 L 680.546875 112.824219 L 669.886719 102.160156 L 680.546875 91.5 L 680.546875 77.855469 L 690.210938 87.515625 L 706.910156 87.515625 L 706.910156 70.789062 L 697.273438 61.152344 L 710.894531 61.152344 L 721.554688 50.488281 L 732.21875 61.152344 L 745.863281 61.152344 L 736.433594 70.609375 L 736.226562 70.8125 L 736.226562 87.515625 L 752.929688 87.515625 L 762.566406 77.878906 L 762.566406 91.5 L 773.226562 102.160156 L 762.566406 112.824219 L 762.566406 126.46875 L 752.929688 116.832031 L 736.226562 116.832031 L 736.226562 133.535156 L 745.863281 143.171875 L 732.21875 143.171875 L 721.554688 153.832031 Z M 722.558594 49.179688 L 732.8125 38.925781 L 747.25 38.925781 L 757.65625 49.332031 L 747.25 59.765625 L 732.8125 59.765625 L 722.558594 49.511719 L 722.714844 49.332031 Z M 749.230469 59.765625 L 758.941406 50.027344 L 772.714844 50.027344 L 762.976562 59.765625 Z M 762.566406 61.152344 L 762.566406 75.902344 L 752.363281 86.128906 L 737.617188 86.128906 L 737.617188 71.378906 L 747.84375 61.152344 Z M 763.976562 60.742188 L 773.691406 51.03125 L 773.691406 64.777344 L 763.976562 74.515625 Z M 772.714844 48.640625 L 758.941406 48.640625 L 749.230469 38.925781 L 762.976562 38.925781 Z M 763.976562 37.925781 L 763.976562 24.179688 L 773.691406 33.890625 L 773.691406 47.664062 Z M 762.566406 37.539062 L 747.84375 37.539062 L 737.617188 27.3125 L 737.617188 12.566406 L 752.363281 12.566406 L 762.566406 22.792969 Z M 762.976562 144.558594 L 772.714844 154.296875 L 758.941406 154.296875 L 749.230469 144.558594 Z M 747.84375 143.171875 L 737.617188 132.96875 L 737.617188 118.21875 L 752.363281 118.21875 L 762.566406 128.421875 L 762.566406 143.171875 Z M 763.976562 143.582031 L 763.976562 129.808594 L 773.691406 139.546875 L 773.691406 153.320312 Z M 773.691406 156.660156 L 773.691406 170.433594 L 763.976562 180.171875 L 763.976562 166.398438 Z M 722.558594 154.808594 L 732.8125 144.558594 L 747.25 144.558594 L 757.65625 154.988281 L 747.25 165.421875 L 732.8125 165.421875 L 722.558594 155.167969 L 722.714844 154.988281 Z M 747.84375 166.808594 L 762.566406 166.808594 L 762.566406 181.558594 L 752.363281 191.757812 L 737.617188 191.757812 L 737.617188 177.007812 Z M 749.230469 165.421875 L 758.941406 155.683594 L 772.714844 155.683594 L 762.976562 165.421875 Z M 775.078125 170.433594 L 775.078125 156.660156 L 784.816406 166.398438 L 784.816406 180.171875 Z M 776.082031 155.683594 L 789.828125 155.683594 L 799.566406 165.421875 L 785.792969 165.421875 Z M 775.078125 153.320312 L 775.078125 139.546875 L 784.816406 129.808594 L 784.816406 143.582031 Z M 776.082031 154.296875 L 785.792969 144.558594 L 799.566406 144.558594 L 789.828125 154.296875 Z M 784.816406 127.855469 L 774.359375 138.289062 L 763.976562 127.855469 L 763.976562 113.414062 L 774.230469 103.136719 L 774.359375 103.316406 L 774.5625 103.136719 L 784.816406 113.414062 Z M 774.359375 101.003906 L 774.230469 101.183594 L 763.976562 90.933594 L 763.976562 76.492188 L 774.359375 66.0625 L 784.816406 76.492188 L 784.816406 90.933594 L 774.5625 101.183594 Z M 775.078125 64.777344 L 775.078125 51.03125 L 784.816406 60.742188 L 784.816406 74.515625 Z M 776.082031 50.027344 L 789.828125 50.027344 L 799.566406 59.765625 L 785.792969 59.765625 Z M 775.078125 47.664062 L 775.078125 33.890625 L 784.816406 24.179688 L 784.816406 37.925781 Z M 776.082031 48.640625 L 785.792969 38.925781 L 799.566406 38.925781 L 789.828125 48.640625 Z M 784.816406 22.199219 L 774.359375 32.632812 L 763.976562 22.199219 L 763.976562 7.761719 L 770.453125 1.285156 L 778.339844 1.285156 L 784.816406 7.761719 Z M 679.160156 7.761719 L 679.160156 22.199219 L 668.730469 32.632812 L 658.324219 22.199219 L 658.324219 7.761719 L 664.796875 1.285156 L 672.683594 1.285156 Z M 573.53125 7.761719 L 573.53125 22.199219 L 563.097656 32.632812 L 552.667969 22.199219 L 552.667969 7.761719 L 559.140625 1.285156 L 567.054688 1.285156 Z M 509.292969 49.511719 L 499.042969 59.765625 L 484.574219 59.765625 L 474.167969 49.332031 L 484.574219 38.925781 L 499.042969 38.925781 L 509.292969 49.179688 L 509.113281 49.332031 Z M 482.625 38.925781 L 472.886719 48.640625 L 459.136719 48.640625 L 468.851562 38.925781 Z M 469.261719 37.515625 L 469.261719 22.792969 L 479.488281 12.566406 L 494.210938 12.566406 L 494.210938 27.3125 L 484.011719 37.515625 Z M 467.875 37.925781 L 458.136719 47.664062 L 458.136719 33.890625 L 467.875 24.179688 Z M 459.136719 50.027344 L 472.886719 50.027344 L 482.625 59.765625 L 468.851562 59.765625 Z M 467.875 60.742188 L 467.875 74.515625 L 458.136719 64.777344 L 458.136719 51.03125 Z M 469.261719 61.152344 L 484.011719 61.152344 L 494.210938 71.378906 L 494.210938 86.128906 L 479.488281 86.128906 L 469.261719 75.902344 Z M 467.875 7.761719 L 467.875 22.199219 L 457.441406 32.632812 L 447.011719 22.199219 L 447.011719 7.761719 L 453.507812 1.285156 L 461.398438 1.285156 Z M 446.035156 38.925781 L 455.746094 48.640625 L 442 48.640625 L 432.289062 38.925781 Z M 430.898438 37.515625 L 420.671875 27.3125 L 420.671875 12.566406 L 435.421875 12.566406 L 445.621094 22.792969 L 445.621094 37.515625 Z M 447.011719 37.925781 L 447.011719 24.179688 L 456.75 33.890625 L 456.75 47.664062 Z M 456.75 51.03125 L 456.75 64.777344 L 447.011719 74.515625 L 447.011719 60.742188 Z M 405.617188 49.179688 L 415.867188 38.925781 L 430.308594 38.925781 L 440.742188 49.332031 L 430.308594 59.765625 L 415.867188 59.765625 L 405.617188 49.511719 L 405.769531 49.332031 Z M 430.898438 61.152344 L 445.621094 61.152344 L 445.621094 75.902344 L 435.421875 86.128906 L 420.671875 86.128906 L 420.671875 71.378906 Z M 432.289062 59.765625 L 442 50.027344 L 455.746094 50.027344 L 446.035156 59.765625 Z M 447.011719 76.46875 L 457.441406 66.0625 L 467.875 76.492188 L 467.875 90.933594 L 457.621094 101.183594 L 457.441406 101.003906 L 457.289062 101.183594 L 447.011719 90.933594 Z M 457.441406 103.316406 L 457.621094 103.136719 L 467.875 113.414062 L 467.875 127.855469 L 457.441406 138.289062 L 447.011719 127.855469 L 447.011719 113.414062 L 457.289062 103.164062 Z M 482.625 144.558594 L 472.886719 154.296875 L 459.136719 154.296875 L 468.851562 144.558594 Z M 469.261719 143.171875 L 469.261719 128.421875 L 479.488281 118.21875 L 494.210938 118.21875 L 494.210938 132.96875 L 484.011719 143.171875 Z M 482.625 165.421875 L 468.851562 165.421875 L 463.351562 159.921875 L 459.136719 155.683594 L 472.886719 155.683594 Z M 458.136719 153.320312 L 458.136719 139.546875 L 467.875 129.808594 L 467.875 143.582031 Z M 456.75 139.546875 L 456.75 153.320312 L 447.011719 143.582031 L 447.011719 129.808594 Z M 456.75 156.683594 L 456.75 162.308594 C 455.457031 161.695312 454.199219 161.078125 452.953125 160.457031 Z M 458.136719 156.683594 L 467.875 166.398438 L 467.875 167.1875 C 464.453125 165.792969 461.21875 164.386719 458.136719 162.957031 Z M 469.261719 166.808594 L 484.011719 166.808594 L 493.65625 176.457031 C 484.445312 173.484375 476.429688 170.632812 469.261719 167.753906 Z M 499.605469 143.171875 L 485.964844 143.171875 L 495.417969 133.738281 L 495.625 133.535156 L 495.625 116.832031 L 478.871094 116.832031 L 469.261719 126.46875 L 469.261719 112.824219 L 458.597656 102.160156 L 469.261719 91.5 L 469.261719 77.878906 L 478.871094 87.515625 L 495.625 87.515625 L 495.625 70.789062 L 485.964844 61.152344 L 499.605469 61.152344 L 510.269531 50.488281 L 520.933594 61.152344 L 534.578125 61.152344 L 524.941406 70.789062 L 524.941406 87.515625 L 541.644531 87.515625 L 551.277344 77.878906 L 551.277344 91.5 L 561.941406 102.160156 L 551.277344 112.824219 L 551.277344 126.46875 L 541.644531 116.832031 L 524.917969 116.832031 L 524.917969 133.535156 L 534.578125 143.171875 L 520.933594 143.171875 L 510.269531 153.832031 Z M 511.246094 154.808594 L 521.523438 144.558594 L 535.964844 144.558594 L 546.398438 154.988281 L 535.964844 165.421875 L 521.523438 165.421875 L 511.246094 155.167969 L 511.425781 154.988281 Z M 547.65625 155.683594 L 561.402344 155.683594 L 557.1875 159.921875 L 551.691406 165.421875 L 537.917969 165.421875 Z M 552.667969 182.121094 L 563.097656 171.691406 L 573.53125 182.121094 L 573.53125 196.5625 L 571.65625 198.4375 C 565.265625 196.574219 558.914062 194.796875 552.667969 193.082031 Z M 680.164062 250.214844 L 693.910156 250.214844 L 684.171875 259.953125 L 682.722656 259.953125 C 681.222656 257.503906 679.519531 255.101562 677.632812 252.746094 Z M 680.546875 248.824219 L 680.546875 234.078125 L 690.773438 223.851562 L 705.523438 223.851562 L 705.523438 238.597656 L 695.296875 248.824219 Z M 684.171875 261.339844 L 693.910156 271.050781 L 688.105469 271.050781 C 686.910156 267.742188 685.394531 264.503906 683.5625 261.339844 Z M 710.894531 248.824219 L 697.273438 248.824219 L 706.707031 239.394531 L 706.910156 239.191406 L 706.910156 222.464844 L 690.210938 222.464844 L 680.546875 232.097656 L 680.546875 218.480469 L 669.886719 207.816406 L 680.546875 197.152344 L 680.546875 183.511719 L 690.210938 193.144531 L 706.910156 193.144531 L 706.910156 176.445312 L 697.273438 166.808594 L 710.894531 166.808594 L 721.554688 156.144531 L 732.21875 166.808594 L 745.863281 166.808594 L 736.226562 176.445312 L 736.226562 193.144531 L 752.929688 193.144531 L 762.566406 183.511719 L 762.566406 197.152344 L 773.226562 207.816406 L 762.566406 218.480469 L 762.566406 232.097656 L 752.929688 222.464844 L 736.226562 222.464844 L 736.226562 239.191406 L 745.863281 248.824219 L 732.21875 248.824219 L 721.554688 259.488281 Z M 722.558594 260.464844 L 732.8125 250.214844 L 747.25 250.214844 L 757.65625 260.644531 L 747.25 271.050781 L 732.8125 271.050781 L 722.558594 260.800781 L 722.714844 260.644531 Z M 747.84375 272.464844 L 762.566406 272.464844 L 762.566406 287.1875 L 752.363281 297.414062 L 737.617188 297.414062 L 737.617188 282.664062 Z M 749.230469 271.050781 L 758.941406 261.339844 L 772.714844 261.339844 L 762.976562 271.050781 Z M 763.976562 287.777344 L 774.359375 277.347656 L 784.816406 287.777344 L 784.816406 302.21875 L 774.5625 312.472656 L 774.359375 312.316406 L 774.230469 312.472656 L 763.976562 302.21875 Z M 774.359375 314.605469 L 774.5625 314.449219 L 784.816406 324.703125 L 784.816406 339.140625 L 774.359375 349.574219 L 763.976562 339.140625 L 763.976562 324.703125 L 774.230469 314.449219 Z M 785.792969 376.707031 L 776.082031 366.96875 L 789.828125 366.96875 L 799.566406 376.707031 Z M 776.082031 365.582031 L 779.445312 362.191406 L 785.792969 355.871094 L 799.566406 355.871094 L 791.394531 364.039062 L 789.828125 365.582031 Z M 775.078125 364.605469 L 775.078125 350.832031 L 784.816406 341.121094 L 784.816406 354.867188 L 777.777344 361.933594 Z M 773.691406 350.832031 L 773.691406 364.605469 L 769.347656 360.261719 L 763.976562 354.867188 L 763.976562 341.121094 Z M 766.882812 359.773438 L 772.714844 365.582031 L 758.941406 365.582031 L 749.230469 355.871094 L 762.976562 355.871094 Z M 772.714844 366.996094 L 768.320312 371.363281 L 762.976562 376.707031 L 749.230469 376.707031 L 758.941406 366.996094 Z M 762.566406 354.480469 L 747.84375 354.480469 L 737.617188 344.253906 L 737.617188 329.507812 L 752.363281 329.507812 L 762.566406 339.734375 Z M 773.691406 367.972656 L 773.691406 377.246094 L 764.414062 377.246094 Z M 775.078125 367.972656 L 784.378906 377.246094 L 775.078125 377.246094 Z M 801.519531 376.707031 L 791.113281 366.277344 L 793.140625 364.246094 L 801.519531 355.871094 L 807.375 355.871094 L 807.375 376.707031 Z M 802.90625 354.480469 L 807.375 350.011719 L 807.375 354.480469 Z M 800.953125 354.480469 L 786.203125 354.480469 L 786.203125 339.734375 L 796.429688 329.507812 L 807.375 329.507812 L 807.375 348.058594 Z M 796.429688 297.414062 L 786.203125 287.1875 L 786.203125 272.464844 L 800.953125 272.464844 L 807.375 278.863281 L 807.375 297.414062 Z M 802.90625 272.464844 L 807.375 272.464844 L 807.375 276.914062 Z M 801.519531 271.050781 L 791.113281 260.644531 L 801.519531 250.214844 L 807.375 250.214844 L 807.375 271.050781 Z M 802.90625 248.824219 L 807.375 244.378906 L 807.375 248.824219 Z M 800.953125 248.824219 L 786.203125 248.824219 L 786.203125 234.078125 L 796.429688 223.851562 L 807.375 223.851562 L 807.375 242.402344 Z M 796.429688 191.757812 L 786.203125 181.558594 L 786.203125 166.808594 L 800.953125 166.808594 L 807.375 173.210938 L 807.375 191.757812 Z M 802.90625 166.808594 L 807.375 166.808594 L 807.375 171.257812 Z M 801.519531 165.421875 L 791.113281 154.988281 L 801.519531 144.558594 L 807.375 144.558594 L 807.375 165.421875 Z M 802.90625 143.171875 L 807.375 138.722656 L 807.375 143.171875 Z M 800.953125 143.171875 L 786.203125 143.171875 L 786.203125 128.421875 L 796.429688 118.21875 L 807.375 118.21875 L 807.375 136.769531 Z M 796.429688 86.128906 L 786.203125 75.902344 L 786.203125 61.152344 L 800.953125 61.152344 L 807.375 67.578125 L 807.375 86.128906 Z M 802.90625 61.152344 L 807.375 61.152344 L 807.375 65.601562 Z M 801.519531 59.765625 L 791.113281 49.332031 L 801.519531 38.925781 L 807.375 38.925781 L 807.375 59.765625 Z M 802.90625 37.515625 L 807.375 33.066406 L 807.375 37.515625 Z M 800.953125 37.515625 L 786.203125 37.515625 L 786.203125 22.792969 L 796.429688 12.566406 L 807.375 12.566406 L 807.375 31.113281 Z M 28.9375 1.285156 L 23.050781 7.195312 L 23.050781 20.8125 L 13.59375 11.382812 L 13.390625 11.175781 L 1.851562 11.175781 L 1.851562 1.285156 Z M 75.800781 342.175781 L 75.800781 354.480469 L 63.390625 354.480469 L 72.820312 345.027344 L 73.027344 344.820312 L 73.027344 328.121094 L 56.324219 328.121094 L 46.664062 337.753906 L 46.664062 324.136719 L 36 313.472656 L 36 313.449219 L 46.664062 302.785156 L 46.664062 289.167969 L 56.121094 298.597656 L 56.324219 298.800781 L 73.027344 298.800781 L 73.027344 282.101562 L 63.390625 272.464844 L 77.007812 272.464844 L 87.671875 261.800781 L 98.335938 272.464844 L 111.980469 272.464844 L 102.34375 282.101562 L 102.34375 298.800781 L 118.578125 298.800781 C 120.140625 309.4375 124.273438 318.996094 128.679688 326.628906 L 128.679688 337.753906 L 119.046875 328.121094 L 102.34375 328.121094 L 102.34375 342.175781 Z M 103.730469 342.175781 L 103.730469 329.507812 L 118.480469 329.507812 L 124.363281 335.390625 L 128.679688 339.734375 L 128.679688 341.035156 C 127.515625 341.761719 126.15625 342.175781 124.695312 342.175781 Z M 131.3125 338.261719 C 131.0625 338.71875 130.738281 339.101562 130.414062 339.488281 L 130.066406 339.140625 L 130.066406 328.964844 C 130.386719 329.480469 130.703125 330.003906 131.019531 330.5 C 132.554688 332.882812 132.664062 335.789062 131.3125 338.261719 Z M 119.328125 277.402344 C 117.730469 284.320312 117.589844 291.046875 118.382812 297.414062 L 103.730469 297.414062 L 103.730469 282.664062 L 113.957031 272.464844 L 120.738281 272.464844 C 120.199219 274.097656 119.710938 275.738281 119.328125 277.402344 Z M 132.53125 251.675781 L 130.066406 249.238281 L 130.066406 235.464844 L 139.191406 244.585938 C 136.773438 246.902344 134.539062 249.261719 132.53125 251.675781 Z M 159.664062 229.085938 C 157.296875 230.53125 155.050781 232.015625 152.882812 233.515625 L 162.546875 223.851562 L 169.085938 223.851562 C 165.792969 225.550781 162.613281 227.285156 159.664062 229.085938 Z M 274.5625 188.230469 C 272 188.917969 269.390625 189.621094 266.753906 190.332031 L 257.976562 181.558594 L 257.976562 166.808594 L 272.722656 166.808594 L 282.925781 177.007812 L 282.925781 185.976562 C 280.183594 186.71875 277.394531 187.46875 274.5625 188.230469 Z M 308.96875 178.582031 C 306.105469 179.46875 302.996094 180.386719 299.730469 181.324219 C 299.707031 180.890625 299.679688 180.464844 299.679688 180.015625 C 299.679688 179.628906 299.371094 179.320312 298.984375 179.320312 C 298.597656 179.320312 298.289062 179.628906 298.289062 180.015625 C 298.289062 180.609375 298.253906 181.179688 298.214844 181.757812 C 293.835938 183.003906 289.171875 184.285156 284.3125 185.601562 L 284.3125 176.445312 L 274.675781 166.808594 L 288.320312 166.808594 L 298.984375 156.171875 L 309.648438 166.808594 L 323.265625 166.808594 L 313.628906 176.445312 L 313.628906 177.105469 C 312.082031 177.597656 310.554688 178.089844 308.96875 178.582031 Z M 404.613281 101.183594 L 397.421875 93.992188 C 400.941406 90.289062 403.484375 85.691406 404.613281 80.550781 C 405.769531 85.691406 408.3125 90.316406 411.808594 93.992188 Z M 412.8125 94.96875 C 416.484375 98.488281 421.109375 101.03125 426.25 102.160156 C 421.109375 103.316406 416.484375 105.835938 412.8125 109.355469 L 405.617188 102.160156 Z M 403.636719 102.160156 L 396.445312 109.355469 C 392.769531 105.835938 388.144531 103.316406 383.003906 102.160156 C 388.144531 101.03125 392.769531 98.488281 396.445312 94.96875 Z M 404.613281 103.136719 L 411.808594 110.332031 C 408.355469 113.988281 405.84375 118.527344 404.667969 123.589844 L 404.664062 123.585938 L 404.585938 123.671875 C 403.445312 118.546875 400.917969 114.007812 397.421875 110.332031 Z M 405.832031 124.839844 C 408.230469 112.332031 419.226562 102.855469 432.417969 102.855469 C 432.800781 102.855469 433.109375 102.546875 433.109375 102.160156 C 433.109375 101.777344 432.800781 101.46875 432.417969 101.46875 C 417.488281 101.46875 405.308594 89.3125 405.308594 74.359375 C 405.308594 73.976562 405 73.667969 404.613281 73.667969 C 404.230469 73.667969 403.921875 73.976562 403.921875 74.359375 C 403.921875 89.3125 391.765625 101.46875 376.8125 101.46875 C 376.429688 101.46875 376.09375 101.777344 376.09375 102.160156 C 376.09375 102.546875 376.429688 102.855469 376.8125 102.855469 C 390.050781 102.855469 401.046875 112.378906 403.425781 124.917969 C 397.03125 131.875 390.582031 137.894531 383.886719 143.171875 L 380.332031 143.171875 L 389.96875 133.535156 L 389.96875 116.832031 L 373.265625 116.832031 L 363.605469 126.46875 L 363.605469 112.824219 L 352.941406 102.160156 L 363.605469 91.5 L 363.605469 77.855469 L 373.265625 87.515625 L 389.96875 87.515625 L 389.96875 70.789062 L 380.332031 61.152344 L 393.953125 61.152344 L 404.613281 50.488281 L 415.277344 61.152344 L 428.921875 61.152344 L 419.285156 70.789062 L 419.285156 87.515625 L 435.988281 87.515625 L 445.621094 77.878906 L 445.621094 91.5 L 456.285156 102.160156 L 445.621094 112.824219 L 445.621094 126.46875 L 435.988281 116.832031 L 419.285156 116.832031 L 419.285156 133.535156 L 428.921875 143.171875 L 425.476562 143.171875 C 418.625 137.785156 412.15625 131.738281 405.832031 124.839844 Z M 444.101562 155.683594 L 455.746094 155.683594 L 451.632812 159.796875 C 449.777344 158.847656 447.964844 157.878906 446.191406 156.894531 C 445.480469 156.5 444.800781 156.082031 444.101562 155.683594 Z M 495.625 177.089844 L 495.625 176.445312 L 485.964844 166.808594 L 499.605469 166.808594 L 510.269531 156.144531 L 520.933594 166.808594 L 534.578125 166.808594 L 525.121094 176.238281 L 524.917969 176.445312 L 524.917969 185.574219 C 520.0625 184.257812 515.410156 182.976562 511.039062 181.734375 C 511 181.160156 510.964844 180.589844 510.964844 180.015625 C 510.964844 179.628906 510.65625 179.320312 510.269531 179.320312 C 509.886719 179.320312 509.578125 179.628906 509.578125 180.015625 C 509.578125 180.457031 509.546875 180.875 509.527344 181.300781 C 506.289062 180.371094 503.203125 179.460938 500.363281 178.578125 C 498.746094 178.078125 497.171875 177.582031 495.625 177.089844 Z M 526.328125 185.957031 L 526.328125 177.035156 L 536.53125 166.808594 L 551.277344 166.808594 L 551.277344 181.558594 L 542.5 190.3125 C 539.886719 189.609375 537.300781 188.914062 534.761719 188.230469 C 531.90625 187.460938 529.09375 186.703125 526.328125 185.957031 Z M 640.222656 223.851562 L 646.707031 223.851562 L 656.265625 233.40625 C 654.140625 231.945312 651.949219 230.5 649.636719 229.085938 C 646.691406 227.285156 643.515625 225.550781 640.222656 223.851562 Z M 670.089844 244.558594 L 679.160156 235.464844 L 679.160156 249.238281 L 676.757812 251.640625 C 674.746094 249.226562 672.507812 246.871094 670.089844 244.558594 Z M 689.984375 277.394531 C 689.601562 275.730469 689.113281 274.09375 688.574219 272.464844 L 695.296875 272.464844 L 705.523438 282.664062 L 705.523438 297.414062 L 690.925781 297.414062 C 691.722656 291.042969 691.582031 284.3125 689.984375 277.394531 Z M 677.992188 338.261719 C 676.640625 335.789062 676.75 332.882812 678.289062 330.496094 C 678.578125 330.042969 678.871094 329.558594 679.160156 329.085938 L 679.160156 339.140625 L 678.859375 339.445312 C 678.550781 339.070312 678.234375 338.703125 677.992188 338.261719 Z M 680.546875 340.976562 L 680.546875 339.734375 L 689.746094 330.558594 L 690.773438 329.507812 L 705.523438 329.507812 L 705.523438 342.175781 L 684.605469 342.175781 C 683.113281 342.175781 681.730469 341.734375 680.546875 340.976562 Z M 706.910156 342.175781 L 706.910156 328.121094 L 690.210938 328.121094 L 688.460938 329.839844 L 680.546875 337.753906 L 680.546875 326.761719 C 684.984375 319.105469 689.160156 309.496094 690.734375 298.800781 L 706.910156 298.800781 L 706.910156 282.101562 L 697.273438 272.464844 L 710.894531 272.464844 L 721.554688 261.800781 L 732.21875 272.464844 L 745.863281 272.464844 L 736.226562 282.101562 L 736.226562 298.800781 L 752.929688 298.800781 L 762.566406 289.167969 L 762.566406 302.785156 L 773.226562 313.449219 L 773.226562 313.472656 L 762.566406 324.136719 L 762.566406 337.753906 L 752.929688 328.121094 L 736.226562 328.121094 L 736.226562 344.820312 L 745.710938 354.328125 L 745.863281 354.480469 L 733.503906 354.480469 L 733.503906 342.175781 Z M 706.910156 342.175781 " fill-opacity="1" fill-rule="nonzero"/></g><path fill="#e9e8e9" d="M 722.25 129.964844 C 722.25 115.007812 734.429688 102.855469 749.359375 102.855469 C 749.742188 102.855469 750.050781 102.546875 750.050781 102.160156 C 750.050781 101.777344 749.742188 101.46875 749.359375 101.46875 C 734.429688 101.46875 722.25 89.3125 722.25 74.359375 C 722.25 73.976562 721.941406 73.667969 721.554688 73.667969 C 721.171875 73.667969 720.863281 73.976562 720.863281 74.359375 C 720.863281 89.3125 708.710938 101.46875 693.753906 101.46875 C 693.371094 101.46875 693.0625 101.777344 693.0625 102.160156 C 693.0625 102.546875 693.371094 102.855469 693.753906 102.855469 C 708.710938 102.855469 720.863281 115.007812 720.863281 129.964844 C 720.863281 130.347656 721.171875 130.65625 721.554688 130.65625 C 721.941406 130.65625 722.25 130.347656 722.25 129.964844 Z M 743.191406 102.160156 C 738.050781 103.316406 733.425781 105.835938 729.753906 109.355469 L 723.457031 103.0625 L 722.558594 102.160156 L 729.753906 94.96875 C 733.425781 98.488281 738.050781 101.03125 743.191406 102.160156 Z M 721.554688 80.550781 C 722.714844 85.691406 725.257812 90.289062 728.75 93.992188 L 721.554688 101.183594 L 714.363281 93.992188 C 717.882812 90.289062 720.398438 85.691406 721.554688 80.550781 Z M 699.949219 102.160156 C 705.085938 101.03125 709.710938 98.488281 713.386719 94.96875 L 720.582031 102.160156 L 713.386719 109.355469 C 709.710938 105.835938 705.085938 103.316406 699.949219 102.160156 Z M 714.363281 110.332031 L 721.554688 103.136719 L 728.75 110.332031 C 725.257812 114.03125 722.714844 118.632812 721.554688 123.796875 C 720.398438 118.632812 717.882812 114.03125 714.363281 110.332031 Z M 714.363281 110.332031 " fill-opacity="1" fill-rule="nonzero"/><path fill="#e9e8e9" d="M 722.25 235.617188 C 722.25 220.664062 734.429688 208.511719 749.359375 208.511719 C 749.742188 208.511719 750.050781 208.203125 750.050781 207.816406 C 750.050781 207.433594 749.742188 207.125 749.359375 207.125 C 734.429688 207.125 722.25 194.96875 722.25 180.015625 C 722.25 179.628906 721.941406 179.320312 721.554688 179.320312 C 721.171875 179.320312 720.863281 179.628906 720.863281 180.015625 C 720.863281 194.96875 708.710938 207.125 693.753906 207.125 C 693.371094 207.125 693.0625 207.433594 693.0625 207.816406 C 693.0625 208.203125 693.371094 208.511719 693.753906 208.511719 C 708.710938 208.511719 720.863281 220.664062 720.863281 235.617188 C 720.863281 236.003906 721.171875 236.3125 721.554688 236.3125 C 721.941406 236.3125 722.25 236.003906 722.25 235.617188 Z M 743.191406 207.816406 C 738.050781 208.949219 733.425781 211.492188 729.753906 215.011719 L 722.558594 207.816406 L 729.753906 200.621094 C 733.425781 204.144531 738.050781 206.660156 743.191406 207.816406 Z M 721.554688 186.183594 C 722.714844 191.347656 725.257812 195.945312 728.75 199.648438 L 721.554688 206.839844 L 714.363281 199.648438 C 717.882812 195.945312 720.398438 191.347656 721.554688 186.183594 Z M 699.949219 207.816406 C 705.085938 206.660156 709.710938 204.144531 713.386719 200.621094 L 720.582031 207.816406 L 713.386719 215.011719 C 709.710938 211.492188 705.085938 208.949219 699.949219 207.816406 Z M 714.363281 215.988281 L 721.554688 208.792969 L 728.75 215.988281 C 725.257812 219.6875 722.714844 224.289062 721.554688 229.425781 C 720.398438 224.289062 717.882812 219.6875 714.363281 215.988281 Z M 714.363281 215.988281 " fill-opacity="1" fill-rule="nonzero"/><path fill="#e9e8e9" d="M 750.050781 313.472656 L 750.050781 313.449219 C 750.050781 313.089844 749.742188 312.753906 749.359375 312.753906 C 734.429688 312.753906 722.25 300.601562 722.25 285.644531 C 722.25 285.285156 721.941406 284.953125 721.554688 284.953125 C 721.171875 284.953125 720.863281 285.285156 720.863281 285.644531 C 720.863281 300.601562 708.710938 312.753906 693.753906 312.753906 C 693.371094 312.753906 693.0625 313.089844 693.0625 313.449219 L 693.0625 313.472656 C 693.0625 313.832031 693.371094 314.167969 693.753906 314.167969 C 708.710938 314.167969 720.863281 326.320312 720.863281 341.273438 C 720.863281 341.632812 721.171875 341.96875 721.554688 341.96875 C 721.941406 341.96875 722.25 341.632812 722.25 341.273438 C 722.25 326.320312 734.429688 314.167969 749.359375 314.167969 C 749.742188 314.167969 750.050781 313.832031 750.050781 313.472656 Z M 721.554688 291.839844 C 722.714844 296.976562 725.257812 301.601562 728.75 305.277344 L 721.554688 312.472656 L 714.363281 305.277344 C 717.882812 301.601562 720.398438 296.976562 721.554688 291.839844 Z M 699.949219 313.472656 L 699.949219 313.449219 C 705.085938 312.316406 709.710938 309.773438 713.386719 306.277344 L 720.582031 313.449219 L 720.582031 313.472656 L 713.386719 320.640625 C 709.710938 317.148438 705.085938 314.605469 699.949219 313.472656 Z M 721.554688 335.082031 C 720.398438 329.945312 717.882812 325.320312 714.363281 321.644531 L 721.554688 314.449219 L 728.75 321.644531 C 725.257812 325.320312 722.714844 329.945312 721.554688 335.082031 Z M 743.191406 313.472656 C 738.050781 314.605469 733.425781 317.148438 729.753906 320.640625 L 723.457031 314.347656 L 722.558594 313.472656 L 722.558594 313.449219 L 729.753906 306.277344 C 733.425781 309.773438 738.050781 312.316406 743.191406 313.449219 Z M 743.191406 313.472656 " fill-opacity="1" fill-rule="nonzero"/><path fill="#e9e8e9" d="M 616.621094 129.964844 C 616.621094 115.007812 628.773438 102.855469 643.726562 102.855469 C 644.113281 102.855469 644.421875 102.546875 644.421875 102.160156 C 644.421875 101.777344 644.113281 101.46875 643.726562 101.46875 C 628.773438 101.46875 616.621094 89.3125 616.621094 74.359375 C 616.621094 73.976562 616.3125 73.667969 615.925781 73.667969 C 615.539062 73.667969 615.234375 73.976562 615.234375 74.359375 C 615.234375 89.3125 603.054688 101.46875 588.125 101.46875 C 587.738281 101.46875 587.429688 101.777344 587.429688 102.160156 C 587.429688 102.546875 587.738281 102.855469 588.125 102.855469 C 603.054688 102.855469 615.234375 115.007812 615.234375 129.964844 C 615.234375 130.347656 615.539062 130.65625 615.925781 130.65625 C 616.3125 130.65625 616.621094 130.347656 616.621094 129.964844 Z M 637.535156 102.160156 C 632.394531 103.316406 627.773438 105.835938 624.097656 109.355469 L 616.902344 102.160156 L 624.097656 94.96875 C 627.773438 98.488281 632.394531 101.03125 637.535156 102.160156 Z M 615.925781 80.550781 C 617.058594 85.691406 619.601562 90.316406 623.121094 93.992188 L 615.925781 101.183594 L 608.730469 93.992188 C 612.226562 90.289062 614.769531 85.691406 615.925781 80.550781 Z M 594.292969 102.160156 C 599.457031 101.03125 604.054688 98.488281 607.730469 94.96875 L 614.925781 102.160156 L 607.730469 109.355469 C 604.054688 105.835938 599.429688 103.316406 594.292969 102.160156 Z M 608.730469 110.332031 L 615.925781 103.164062 L 616.824219 104.039062 L 623.121094 110.332031 C 619.601562 114.03125 617.058594 118.632812 615.925781 123.769531 C 614.769531 118.605469 612.226562 114.03125 608.730469 110.332031 Z M 608.730469 110.332031 " fill-opacity="1" fill-rule="nonzero"/><path fill="#e9e8e9" d="M 510.964844 129.964844 C 510.964844 115.007812 523.117188 102.855469 538.070312 102.855469 C 538.457031 102.855469 538.765625 102.546875 538.765625 102.160156 C 538.765625 101.777344 538.457031 101.46875 538.070312 101.46875 C 523.117188 101.46875 510.964844 89.3125 510.964844 74.359375 C 510.964844 73.976562 510.65625 73.667969 510.269531 73.667969 C 509.886719 73.667969 509.578125 73.976562 509.578125 74.359375 C 509.578125 89.3125 497.421875 101.46875 482.46875 101.46875 C 482.082031 101.46875 481.773438 101.777344 481.773438 102.160156 C 481.773438 102.546875 482.082031 102.855469 482.46875 102.855469 C 497.421875 102.855469 509.578125 115.007812 509.578125 129.964844 C 509.578125 130.347656 509.886719 130.65625 510.269531 130.65625 C 510.65625 130.65625 510.964844 130.347656 510.964844 129.964844 Z M 531.878906 102.160156 C 526.742188 103.316406 522.140625 105.835938 518.441406 109.355469 L 511.246094 102.160156 L 518.441406 94.96875 C 522.140625 98.488281 526.742188 101.03125 531.878906 102.160156 Z M 510.269531 80.550781 C 511.425781 85.691406 513.945312 90.289062 517.464844 93.992188 L 510.269531 101.183594 L 503.078125 93.992188 C 506.597656 90.289062 509.140625 85.691406 510.269531 80.550781 Z M 488.660156 102.160156 C 493.800781 101.03125 498.398438 98.488281 502.097656 94.96875 L 509.292969 102.160156 L 502.097656 109.355469 C 498.398438 105.835938 493.800781 103.316406 488.660156 102.160156 Z M 503.078125 110.332031 L 510.269531 103.136719 L 511.167969 104.039062 L 517.464844 110.332031 C 513.945312 114.03125 511.425781 118.632812 510.269531 123.796875 C 509.140625 118.632812 506.597656 114.03125 503.078125 110.332031 Z M 503.078125 110.332031 " fill-opacity="1" fill-rule="nonzero"/><path fill="#e9e8e9" d="M 299.679688 129.964844 C 299.679688 115.007812 311.832031 102.855469 326.785156 102.855469 C 327.171875 102.855469 327.480469 102.546875 327.480469 102.160156 C 327.480469 101.777344 327.171875 101.46875 326.785156 101.46875 C 311.832031 101.46875 299.679688 89.3125 299.679688 74.359375 C 299.679688 73.976562 299.371094 73.667969 298.984375 73.667969 C 298.597656 73.667969 298.289062 73.976562 298.289062 74.359375 C 298.289062 89.3125 286.113281 101.46875 271.183594 101.46875 C 270.796875 101.46875 270.488281 101.777344 270.488281 102.160156 C 270.488281 102.546875 270.796875 102.855469 271.183594 102.855469 C 286.113281 102.855469 298.289062 115.007812 298.289062 129.964844 C 298.289062 130.347656 298.597656 130.65625 298.984375 130.65625 C 299.371094 130.65625 299.679688 130.347656 299.679688 129.964844 Z M 320.59375 102.160156 C 315.453125 103.316406 310.828125 105.835938 307.15625 109.355469 L 299.960938 102.160156 L 307.15625 94.96875 C 310.828125 98.488281 315.453125 101.03125 320.59375 102.160156 Z M 298.984375 80.550781 C 300.113281 85.691406 302.660156 90.289062 306.179688 93.992188 L 298.984375 101.183594 L 291.789062 93.992188 C 295.285156 90.316406 297.828125 85.691406 298.984375 80.550781 Z M 277.347656 102.160156 C 282.515625 101.03125 287.113281 98.488281 290.789062 94.96875 L 297.980469 102.160156 L 290.789062 109.355469 C 287.113281 105.835938 282.488281 103.316406 277.347656 102.160156 Z M 291.789062 110.332031 L 298.984375 103.164062 L 299.882812 104.039062 L 306.179688 110.332031 C 302.660156 114.03125 300.113281 118.605469 298.984375 123.769531 C 297.828125 118.632812 295.285156 114.03125 291.789062 110.332031 Z M 291.789062 110.332031 " fill-opacity="1" fill-rule="nonzero"/><path fill="#e9e8e9" d="M 194.023438 129.964844 C 194.023438 115.007812 206.175781 102.855469 221.128906 102.855469 C 221.515625 102.855469 221.824219 102.546875 221.824219 102.160156 C 221.824219 101.777344 221.515625 101.46875 221.128906 101.46875 C 206.175781 101.46875 194.023438 89.3125 194.023438 74.359375 C 194.023438 73.976562 193.714844 73.667969 193.328125 73.667969 C 192.941406 73.667969 192.632812 73.976562 192.632812 74.359375 C 192.632812 89.3125 180.480469 101.46875 165.527344 101.46875 C 165.140625 101.46875 164.832031 101.777344 164.832031 102.160156 C 164.832031 102.546875 165.140625 102.855469 165.527344 102.855469 C 180.480469 102.855469 192.632812 115.007812 192.632812 129.964844 C 192.632812 130.347656 192.941406 130.65625 193.328125 130.65625 C 193.714844 130.65625 194.023438 130.347656 194.023438 129.964844 Z M 214.9375 102.160156 C 209.796875 103.316406 205.199219 105.835938 201.5 109.355469 L 194.304688 102.160156 L 201.5 94.96875 C 205.199219 98.488281 209.796875 101.03125 214.9375 102.160156 Z M 193.328125 80.550781 C 194.484375 85.691406 197.003906 90.316406 200.523438 93.992188 L 193.328125 101.183594 L 186.132812 93.992188 C 189.652344 90.289062 192.199219 85.691406 193.328125 80.550781 Z M 171.71875 102.160156 C 176.859375 101.03125 181.457031 98.488281 185.15625 94.96875 L 192.351562 102.160156 L 185.15625 109.355469 C 181.457031 105.835938 176.859375 103.316406 171.71875 102.160156 Z M 186.132812 110.332031 L 193.328125 103.136719 L 200.523438 110.332031 C 197.003906 114.03125 194.484375 118.632812 193.328125 123.796875 C 192.199219 118.632812 189.652344 114.03125 186.132812 110.332031 Z M 186.132812 110.332031 " fill-opacity="1" fill-rule="nonzero"/><path fill="#e9e8e9" d="M 115.472656 207.125 C 100.519531 207.125 88.367188 194.96875 88.367188 180.015625 C 88.367188 179.628906 88.058594 179.320312 87.671875 179.320312 C 87.289062 179.320312 86.980469 179.628906 86.980469 180.015625 C 86.980469 194.96875 74.824219 207.125 59.871094 207.125 C 59.484375 207.125 59.175781 207.433594 59.175781 207.816406 C 59.175781 208.203125 59.484375 208.511719 59.871094 208.511719 C 74.824219 208.511719 86.980469 220.664062 86.980469 235.617188 C 86.980469 236.003906 87.289062 236.3125 87.671875 236.3125 C 88.058594 236.3125 88.367188 236.003906 88.367188 235.617188 C 88.367188 220.664062 100.519531 208.511719 115.472656 208.511719 C 115.859375 208.511719 116.167969 208.203125 116.167969 207.816406 C 116.167969 207.433594 115.859375 207.125 115.472656 207.125 Z M 87.671875 186.183594 C 88.828125 191.347656 91.371094 195.945312 94.867188 199.648438 L 87.671875 206.839844 L 80.476562 199.648438 C 84 195.945312 86.542969 191.347656 87.671875 186.183594 Z M 66.0625 207.816406 C 71.203125 206.660156 75.828125 204.144531 79.5 200.621094 L 86.695312 207.816406 L 79.5 215.011719 C 75.828125 211.492188 71.203125 208.949219 66.0625 207.816406 Z M 87.671875 229.425781 C 86.542969 224.289062 84 219.6875 80.476562 215.988281 L 87.671875 208.792969 L 94.867188 215.988281 C 91.371094 219.6875 88.828125 224.289062 87.671875 229.425781 Z M 95.867188 215.011719 L 89.574219 208.714844 L 88.675781 207.816406 L 95.867188 200.621094 C 99.542969 204.144531 104.167969 206.660156 109.308594 207.816406 C 104.167969 208.949219 99.542969 211.492188 95.867188 215.011719 Z M 95.867188 215.011719 " fill-opacity="1" fill-rule="nonzero"/><path fill="#e9e8e9" d="M 115.472656 314.167969 C 115.859375 314.167969 116.167969 313.832031 116.167969 313.472656 L 116.167969 313.449219 C 116.167969 313.089844 115.859375 312.753906 115.472656 312.753906 C 100.519531 312.753906 88.367188 300.601562 88.367188 285.644531 C 88.367188 285.285156 88.058594 284.953125 87.671875 284.953125 C 87.289062 284.953125 86.980469 285.285156 86.980469 285.644531 C 86.980469 300.601562 74.824219 312.753906 59.871094 312.753906 C 59.484375 312.753906 59.175781 313.089844 59.175781 313.449219 L 59.175781 313.472656 C 59.175781 313.832031 59.484375 314.167969 59.871094 314.167969 C 74.824219 314.167969 86.980469 326.320312 86.980469 341.273438 C 86.980469 341.632812 87.289062 341.96875 87.671875 341.96875 C 88.058594 341.96875 88.367188 341.632812 88.367188 341.273438 C 88.367188 326.320312 100.519531 314.167969 115.472656 314.167969 Z M 87.671875 291.839844 C 88.828125 296.976562 91.371094 301.601562 94.867188 305.277344 L 87.671875 312.472656 L 80.476562 305.277344 C 84 301.601562 86.542969 296.976562 87.671875 291.839844 Z M 66.0625 313.472656 L 66.0625 313.449219 C 71.203125 312.316406 75.828125 309.773438 79.5 306.277344 L 86.695312 313.449219 L 86.695312 313.472656 L 79.5 320.640625 C 75.828125 317.148438 71.203125 314.605469 66.0625 313.472656 Z M 87.671875 335.082031 C 86.542969 329.945312 84 325.320312 80.476562 321.644531 L 87.671875 314.449219 L 94.867188 321.644531 C 91.371094 325.320312 88.828125 329.945312 87.671875 335.082031 Z M 89.574219 314.347656 L 88.675781 313.472656 L 88.675781 313.449219 L 95.867188 306.277344 C 99.542969 309.773438 104.167969 312.316406 109.308594 313.449219 L 109.308594 313.472656 C 104.167969 314.605469 99.542969 317.148438 95.867188 320.640625 Z M 89.574219 314.347656 " fill-opacity="1" fill-rule="nonzero"/><path fill="#e9e8e9" d="M 88.367188 129.964844 C 88.367188 115.007812 100.519531 102.855469 115.472656 102.855469 C 115.859375 102.855469 116.167969 102.546875 116.167969 102.160156 C 116.167969 101.777344 115.859375 101.46875 115.472656 101.46875 C 100.519531 101.46875 88.367188 89.3125 88.367188 74.359375 C 88.367188 73.976562 88.058594 73.667969 87.671875 73.667969 C 87.289062 73.667969 86.980469 73.976562 86.980469 74.359375 C 86.980469 89.3125 74.824219 101.46875 59.871094 101.46875 C 59.484375 101.46875 59.175781 101.777344 59.175781 102.160156 C 59.175781 102.546875 59.484375 102.855469 59.871094 102.855469 C 74.824219 102.855469 86.980469 115.007812 86.980469 129.964844 C 86.980469 130.347656 87.289062 130.65625 87.671875 130.65625 C 88.058594 130.65625 88.367188 130.347656 88.367188 129.964844 Z M 109.308594 102.160156 C 104.167969 103.316406 99.542969 105.835938 95.867188 109.355469 L 88.675781 102.160156 L 95.867188 94.96875 C 99.542969 98.488281 104.144531 101.03125 109.308594 102.160156 Z M 87.671875 80.550781 C 88.828125 85.691406 91.371094 90.316406 94.867188 93.992188 L 87.671875 101.183594 L 80.476562 93.992188 C 84 90.316406 86.542969 85.691406 87.671875 80.550781 Z M 66.0625 102.160156 C 71.203125 101.03125 75.828125 98.488281 79.5 94.96875 L 86.695312 102.160156 L 79.5 109.355469 C 75.828125 105.835938 71.203125 103.316406 66.0625 102.160156 Z M 80.476562 110.332031 L 87.671875 103.136719 L 94.867188 110.332031 C 91.371094 114.03125 88.828125 118.632812 87.671875 123.796875 C 86.542969 118.632812 84 114.03125 80.476562 110.332031 Z M 80.476562 110.332031 " fill-opacity="1" fill-rule="nonzero"/><g clip-path="url(#02bbf10226)"><path fill="#0093ae" d="M 738 368.242188 L 738 337.675781 L 684.605469 337.675781 C 682.980469 337.675781 682.207031 336.582031 681.949219 336.113281 C 681.679688 335.625 681.160156 334.335938 682.074219 332.90625 C 690.566406 319.625 699.589844 299.035156 694.367188 276.390625 C 689.863281 256.890625 675.605469 239.6875 651.980469 225.253906 C 622.253906 207.09375 574.335938 194.214844 535.828125 183.863281 C 523.128906 180.453125 511.132812 177.226562 501.683594 174.292969 C 461.101562 161.699219 434.226562 149.488281 408.464844 121.078125 L 404.65625 116.878906 L 400.851562 121.078125 C 375.089844 149.484375 348.210938 161.699219 307.628906 174.292969 C 298.179688 177.226562 286.1875 180.453125 273.484375 183.863281 C 234.980469 194.214844 187.058594 207.09375 157.332031 225.253906 C 133.707031 239.6875 119.449219 256.890625 114.949219 276.390625 C 109.722656 299.035156 118.746094 319.625 127.238281 332.90625 C 128.152344 334.335938 127.628906 335.625 127.363281 336.113281 C 127.105469 336.582031 126.332031 337.675781 124.707031 337.675781 L 71.3125 337.675781 L 71.3125 368.242188 L 0.566406 368.242188 L 0.566406 378.519531 L 81.523438 378.519531 L 81.523438 377.890625 L 81.589844 377.890625 L 81.589844 347.953125 L 124.707031 347.953125 C 129.648438 347.953125 134.007812 345.371094 136.378906 341.046875 C 138.730469 336.753906 138.546875 331.515625 135.898438 327.371094 C 128.464844 315.75 120.539062 297.867188 124.964844 278.703125 C 128.816406 261.992188 141.511719 246.964844 162.691406 234.027344 C 191.152344 216.636719 238.28125 203.96875 276.152344 193.789062 C 288.953125 190.351562 301.042969 187.101562 310.675781 184.109375 C 351.039062 171.582031 378.480469 159.328125 404.65625 132.0625 C 430.835938 159.328125 458.28125 171.582031 498.636719 184.109375 C 508.273438 187.101562 520.363281 190.351562 533.164062 193.789062 C 571.03125 203.96875 618.160156 216.636719 646.621094 234.027344 C 667.800781 246.964844 680.496094 261.992188 684.351562 278.699219 C 688.773438 297.867188 680.847656 315.75 673.414062 327.371094 C 670.765625 331.515625 670.582031 336.753906 672.933594 341.046875 C 675.304688 345.371094 679.664062 347.953125 684.605469 347.953125 L 727.722656 347.953125 L 727.722656 378.519531 L 809.3125 378.519531 L 809.3125 368.242188 Z M 738 368.242188 " fill-opacity="1" fill-rule="nonzero"/></g></svg>