<svg width="2293" height="806" viewBox="0 0 2293 806" fill="none" xmlns="http://www.w3.org/2000/svg">
<mask id="mask0_10_3529" style="mask-type:luminance" maskUnits="userSpaceOnUse" x="0" y="0" width="745" height="806">
<path d="M0 0H744.405V805.589H0V0Z" fill="white"/>
</mask>
<g mask="url(#mask0_10_3529)">
<mask id="mask1_10_3529" style="mask-type:luminance" maskUnits="userSpaceOnUse" x="-26" y="-16" width="781" height="846">
<path d="M-25.9712 35.8501L698.756 -15.2959L754.762 778.104L29.9946 829.25L-25.9712 35.8501Z" fill="white"/>
</mask>
<g mask="url(#mask1_10_3529)">
<mask id="mask2_10_3529" style="mask-type:luminance" maskUnits="userSpaceOnUse" x="-26" y="-16" width="781" height="846">
<path d="M-25.9712 35.8501L698.756 -15.2959L754.762 778.104L29.9946 829.25L-25.9712 35.8501Z" fill="white"/>
</mask>
<g mask="url(#mask2_10_3529)">
<path d="M525.521 717.08C545.916 715.686 565.992 712.34 585.71 707.082C605.467 701.784 624.507 694.694 642.91 685.731C661.273 676.808 678.641 666.213 694.972 653.904C711.304 641.636 726.321 627.933 740.024 612.756C731.778 626.3 722.776 639.285 712.977 651.753C703.178 664.221 692.702 676.052 681.469 687.285C670.276 698.478 658.445 708.994 645.977 718.793C633.51 728.592 620.524 737.634 606.981 745.879C593.437 754.125 579.456 761.534 565.036 768.106C550.616 774.679 535.838 780.375 520.741 785.195C505.645 790.015 490.309 793.879 474.734 796.866C459.159 799.854 443.465 801.885 427.651 803C208.129 818.496 17.6464 653.108 2.15123 433.586C-13.3439 214.025 152.044 23.5418 371.566 8.04665C387.379 6.93132 403.193 6.73214 419.047 7.48898C434.861 8.28565 450.595 9.95864 466.249 12.6275C481.864 15.2565 497.28 18.8415 512.496 23.3028C527.672 27.804 542.57 33.1815 557.149 39.4353C571.688 45.6891 585.829 52.8193 599.532 60.7461C613.274 68.7128 626.459 77.4363 639.126 86.9963C651.793 96.5165 663.863 106.754 675.295 117.748C686.727 128.702 697.482 140.293 707.56 152.562C691.865 139.457 675.056 127.985 657.171 118.106C639.285 108.267 620.604 100.181 601.125 93.9273C581.686 87.6336 561.81 83.2918 541.534 80.862C521.259 78.3923 500.904 77.9143 480.51 79.3881C304.446 91.8161 171.762 244.657 184.19 420.72C196.618 596.823 349.458 729.508 525.521 717.08Z" fill="white"/>
</g>
</g>
</g>
<mask id="mask3_10_3529" style="mask-type:luminance" maskUnits="userSpaceOnUse" x="285" y="71" width="429" height="337">
<path d="M285.525 71.3809H713.813V407.893H285.525V71.3809Z" fill="white"/>
</mask>
<g mask="url(#mask3_10_3529)">
<mask id="mask4_10_3529" style="mask-type:luminance" maskUnits="userSpaceOnUse" x="286" y="79" width="452" height="327">
<path d="M330.179 79.4668L737.315 148.817L693.658 405.144L286.561 335.834L330.179 79.4668Z" fill="white"/>
</mask>
<g mask="url(#mask4_10_3529)">
<mask id="mask5_10_3529" style="mask-type:luminance" maskUnits="userSpaceOnUse" x="285" y="71" width="429" height="337">
<path d="M713.813 71.3809H285.525V407.893H713.813V71.3809Z" fill="white"/>
</mask>
<g mask="url(#mask5_10_3529)">
<mask id="mask6_10_3529" style="mask-type:luminance" maskUnits="userSpaceOnUse" x="316" y="254" width="92" height="93">
<path d="M316.118 254.933H407.894V346.709H316.118V254.933Z" fill="white"/>
</mask>
<g mask="url(#mask6_10_3529)">
<mask id="mask7_10_3529" style="mask-type:luminance" maskUnits="userSpaceOnUse" x="286" y="79" width="452" height="327">
<path d="M330.179 79.4668L737.316 148.817L693.658 405.144L286.562 335.834L330.179 79.4668Z" fill="white"/>
</mask>
<g mask="url(#mask7_10_3529)">
<mask id="mask8_10_3529" style="mask-type:luminance" maskUnits="userSpaceOnUse" x="282" y="82" width="452" height="326">
<path d="M689.555 407.972L282.419 338.622L326.076 82.2949L733.213 151.605L689.555 407.972Z" fill="white"/>
</mask>
<g mask="url(#mask8_10_3529)">
<path d="M334.203 292.854C324.603 312.013 324.682 326.672 327.63 336.989C329.343 343.004 337.867 342.406 338.863 336.232C343.763 305.043 372.044 279.629 404.867 260.15C378.497 267.559 353.044 278.075 334.203 292.854Z" fill="#D9E0E5"/>
</g>
</g>
</g>
<mask id="mask9_10_3529" style="mask-type:luminance" maskUnits="userSpaceOnUse" x="285" y="142" width="427" height="205">
<path d="M285.525 142.762H711.384V346.708H285.525V142.762Z" fill="white"/>
</mask>
<g mask="url(#mask9_10_3529)">
<mask id="mask10_10_3529" style="mask-type:luminance" maskUnits="userSpaceOnUse" x="286" y="79" width="452" height="327">
<path d="M330.179 79.4668L737.315 148.817L693.658 405.144L286.561 335.834L330.179 79.4668Z" fill="white"/>
</mask>
<g mask="url(#mask10_10_3529)">
<mask id="mask11_10_3529" style="mask-type:luminance" maskUnits="userSpaceOnUse" x="282" y="82" width="452" height="326">
<path d="M689.555 407.972L282.418 338.622L326.076 82.2949L733.212 151.605L689.555 407.972Z" fill="white"/>
</mask>
<g mask="url(#mask11_10_3529)">
<path d="M598.894 288.473C570.294 291.858 492.3 297.515 474.017 321.534C455.733 345.554 434.741 286.083 518.112 260.988C518.112 260.988 345.037 221.632 299.507 334.321C296.918 340.774 286.601 335.795 288.115 329.023C294.847 299.586 307.155 216.812 490.189 194.864C616.302 179.767 653.506 199.843 707.361 143.997C707.361 143.997 712.22 275.009 598.894 288.473Z" fill="white"/>
</g>
</g>
</g>
<mask id="mask12_10_3529" style="mask-type:luminance" maskUnits="userSpaceOnUse" x="346" y="254" width="62" height="83">
<path d="M346.709 254.933H407.893V336.511H346.709V254.933Z" fill="white"/>
</mask>
<g mask="url(#mask12_10_3529)">
<mask id="mask13_10_3529" style="mask-type:luminance" maskUnits="userSpaceOnUse" x="286" y="79" width="452" height="327">
<path d="M330.179 79.4668L737.315 148.817L693.658 405.144L286.561 335.834L330.179 79.4668Z" fill="white"/>
</mask>
<g mask="url(#mask13_10_3529)">
<mask id="mask14_10_3529" style="mask-type:luminance" maskUnits="userSpaceOnUse" x="282" y="82" width="452" height="326">
<path d="M689.555 407.972L282.418 338.622L326.076 82.2949L733.212 151.605L689.555 407.972Z" fill="white"/>
</mask>
<g mask="url(#mask14_10_3529)">
<path d="M358.58 328.385C360.731 334.24 369.215 333.045 369.733 326.831C371.725 303.449 386.862 282.337 407.376 264.094C386.543 276.402 367.821 291.021 355.951 307.831C355.353 316.076 356.588 322.888 358.58 328.385Z" fill="#D9E0E5"/>
</g>
</g>
</g>
</g>
</g>
</g>
<path d="M819.255 393.796V161.966H918.201C935.807 161.966 951.103 165.232 964.089 171.685C977.154 178.058 987.192 187.22 994.203 199.09C1001.29 211.001 1004.88 225.221 1004.88 241.792C1004.88 258.801 1000.97 273.459 993.247 285.768C985.599 297.997 974.804 307.198 960.902 313.332L1008.86 393.796H947.996L906.57 321.618H871.835V393.796H819.255ZM871.198 277.323H911.19C924.256 277.323 934.214 274.296 941.145 268.241C948.156 262.107 951.661 253.383 951.661 242.11C951.661 230.877 948.156 222.194 941.145 216.139C934.214 210.084 924.256 207.057 911.19 207.057H871.198V277.323Z" fill="white"/>
<path d="M1027.43 393.796L1119.37 161.966H1171.15L1263.09 393.796H1206.84L1191.23 353.803H1099.29L1083.68 393.796H1027.43ZM1112.84 312.376H1178L1145.18 227.611L1112.84 312.376Z" fill="white"/>
<path d="M1437.17 393.796V300.426H1346.51V393.796H1293.93V161.966H1346.51V251.033H1437.17V161.966H1489.91V393.796H1437.17Z" fill="white"/>
<path d="M1545.5 393.796V161.966H1590.12L1672.65 282.262L1754.71 161.966H1799V393.796H1746.74V254.379L1690.5 336.595H1654.01L1597.76 254.06V393.796H1545.5Z" fill="white"/>
<path d="M1829.82 393.796L1921.75 161.966H1973.53L2065.47 393.796H2009.22L1993.61 353.803H1901.67L1886.06 393.796H1829.82ZM1915.22 312.376H1980.39L1947.56 227.611L1915.22 312.376Z" fill="white"/>
<path d="M2239.55 393.796V300.426H2148.89V393.796H2096.31V161.966H2148.89V251.033H2239.55V161.966H2292.29V393.796H2239.55Z" fill="white"/>
<mask id="mask15_10_3529" style="mask-type:luminance" maskUnits="userSpaceOnUse" x="316" y="356" width="439" height="328">
<path d="M316.117 356.906H754.603V683.221H316.117V356.906Z" fill="white"/>
</mask>
<g mask="url(#mask15_10_3529)">
<mask id="mask16_10_3529" style="mask-type:luminance" maskUnits="userSpaceOnUse" x="322" y="358" width="450" height="324">
<path d="M322.212 424.742L729.946 358.978L771.373 615.664L363.639 681.468L322.212 424.742Z" fill="white"/>
</mask>
<g mask="url(#mask16_10_3529)">
<mask id="mask17_10_3529" style="mask-type:luminance" maskUnits="userSpaceOnUse" x="316" y="356" width="439" height="328">
<path d="M754.603 356.906H316.117V683.221H754.603V356.906Z" fill="white"/>
</mask>
<g mask="url(#mask17_10_3529)">
<mask id="mask18_10_3529" style="mask-type:luminance" maskUnits="userSpaceOnUse" x="356" y="418" width="93" height="92">
<path d="M356.906 418.09H448.682V509.866H356.906V418.09Z" fill="white"/>
</mask>
<g mask="url(#mask18_10_3529)">
<mask id="mask19_10_3529" style="mask-type:luminance" maskUnits="userSpaceOnUse" x="322" y="358" width="450" height="324">
<path d="M322.211 424.742L729.945 358.978L771.372 615.664L363.638 681.468L322.211 424.742Z" fill="white"/>
</mask>
<g mask="url(#mask19_10_3529)">
<mask id="mask20_10_3529" style="mask-type:luminance" maskUnits="userSpaceOnUse" x="318" y="359" width="450" height="324">
<path d="M726.4 359.535L318.666 425.34L360.133 682.026L767.827 616.261L726.4 359.535Z" fill="white"/>
</mask>
<g mask="url(#mask20_10_3529)">
<path d="M370.051 471.586C360.65 452.307 360.81 437.648 363.837 427.371C365.63 421.357 374.154 422.034 375.07 428.208C379.731 459.437 407.813 485.13 440.437 504.887C414.147 497.199 388.773 486.524 370.051 471.586Z" fill="#D9E0E5"/>
</g>
</g>
</g>
<mask id="mask21_10_3529" style="mask-type:luminance" maskUnits="userSpaceOnUse" x="322" y="418" width="423" height="215">
<path d="M322.251 418.09H744.405V632.234H322.251V418.09Z" fill="white"/>
</mask>
<g mask="url(#mask21_10_3529)">
<mask id="mask22_10_3529" style="mask-type:luminance" maskUnits="userSpaceOnUse" x="322" y="358" width="450" height="324">
<path d="M322.212 424.742L729.946 358.978L771.373 615.664L363.639 681.468L322.212 424.742Z" fill="white"/>
</mask>
<g mask="url(#mask22_10_3529)">
<mask id="mask23_10_3529" style="mask-type:luminance" maskUnits="userSpaceOnUse" x="318" y="359" width="450" height="324">
<path d="M726.401 359.535L318.667 425.34L360.133 682.026L767.827 616.261L726.401 359.535Z" fill="white"/>
</mask>
<g mask="url(#mask23_10_3529)">
<path d="M634.704 478.238C606.143 474.574 528.19 468.28 510.105 444.101C492.021 419.922 470.511 479.194 553.683 505.006C553.683 505.006 380.249 542.888 335.755 429.801C333.166 423.308 322.809 428.168 324.323 434.979C330.736 464.456 342.327 547.349 525.202 570.891C651.155 587.103 688.519 567.306 741.896 623.63C741.896 623.63 747.91 492.658 634.704 478.238Z" fill="white"/>
</g>
</g>
</g>
<mask id="mask24_10_3529" style="mask-type:luminance" maskUnits="userSpaceOnUse" x="387" y="428" width="62" height="82">
<path d="M387.499 428.287H448.683V509.866H387.499V428.287Z" fill="white"/>
</mask>
<g mask="url(#mask24_10_3529)">
<mask id="mask25_10_3529" style="mask-type:luminance" maskUnits="userSpaceOnUse" x="322" y="358" width="450" height="324">
<path d="M322.212 424.742L729.946 358.978L771.373 615.664L363.639 681.468L322.212 424.742Z" fill="white"/>
</mask>
<g mask="url(#mask25_10_3529)">
<mask id="mask26_10_3529" style="mask-type:luminance" maskUnits="userSpaceOnUse" x="318" y="359" width="450" height="324">
<path d="M726.401 359.535L318.667 425.34L360.133 682.026L767.827 616.261L726.401 359.535Z" fill="white"/>
</mask>
<g mask="url(#mask26_10_3529)">
<path d="M394.748 436.254C396.939 430.399 405.423 431.634 405.901 437.888C407.694 461.27 422.631 482.501 442.946 500.944C422.273 488.436 403.671 473.698 391.96 456.769C391.402 448.523 392.717 441.712 394.748 436.254Z" fill="#D9E0E5"/>
</g>
</g>
</g>
</g>
</g>
</g>
<mask id="mask27_10_3529" style="mask-type:luminance" maskUnits="userSpaceOnUse" x="394" y="343" width="116" height="100">
<path d="M394.351 343.283H509.071V442.707H394.351V343.283Z" fill="white"/>
</mask>
<g mask="url(#mask27_10_3529)">
<path d="M452.069 443.305C451.432 443.305 450.755 443.186 450.157 442.907L449.719 442.668C449.4 442.508 449.121 442.349 448.843 442.11C410.443 411.438 394.351 395.625 394.351 377.022C394.351 358.46 408.89 343.363 426.775 343.363C436.733 343.363 446.014 348.183 452.069 356.07C458.164 348.183 467.445 343.363 477.403 343.363C495.288 343.363 509.827 358.46 509.827 377.022C509.827 395.306 491.146 411.916 455.415 442.07C455.136 442.309 454.818 442.508 454.459 442.668L454.021 442.907C453.384 443.186 452.746 443.305 452.069 443.305Z" fill="#D9E0E5"/>
</g>
<path d="M857.265 571.128V620.203H924.026V632.95H841.81V501.978H922.592V514.565H857.265V558.541H914.944V571.128H857.265Z" fill="white"/>
<path d="M1015.78 632.95H999.048L1039.84 565.552L1000.8 501.978H1018.17L1050.99 555.036H1053.38L1086.68 501.978H1103.09L1064.22 565.552L1105 632.95H1087.8L1052.9 576.227H1050.67L1015.78 632.95Z" fill="white"/>
<path d="M1243.67 634.861C1232.19 634.861 1221.92 632.272 1212.92 627.054C1203.99 621.756 1196.98 614.068 1191.88 603.951C1186.78 593.753 1184.24 581.604 1184.24 567.463C1184.24 553.243 1186.78 541.094 1191.88 530.976C1196.98 520.898 1203.99 513.25 1212.92 508.032C1221.92 502.734 1232.19 500.065 1243.67 500.065C1255.86 500.065 1266.01 502.416 1274.1 507.076C1282.27 511.657 1288.16 518.628 1291.79 527.949L1281.91 534.481H1279.68C1276.05 526.953 1271.39 521.655 1265.65 518.548C1259.92 515.361 1252.59 513.768 1243.67 513.768C1235.38 513.768 1228.05 515.64 1221.68 519.345C1215.31 523.089 1210.21 528.905 1206.38 536.871C1202.64 544.838 1200.81 555.035 1200.81 567.463C1200.81 579.891 1202.64 590.089 1206.38 598.055C1210.21 605.942 1215.31 611.718 1221.68 615.423C1228.05 619.167 1235.38 620.999 1243.67 620.999C1253.11 620.999 1260.87 618.888 1266.93 614.626C1272.98 610.284 1277.45 603.313 1280.31 593.753H1282.54L1292.9 598.852C1289.79 610.444 1284.06 619.366 1275.69 625.62C1267.29 631.794 1256.61 634.861 1243.67 634.861Z" fill="white"/>
<path d="M1464.14 555.036V501.978H1479.43V632.95H1464.14V568.101H1395.94V632.95H1380.49V501.978H1395.94V555.036H1464.14Z" fill="white"/>
<path d="M1678.23 632.95H1661.82L1649.71 596.94H1593.78L1581.67 632.95H1565.58L1611.31 501.978H1632.5L1678.23 632.95ZM1620.71 517.752L1598.09 584.034H1645.25L1622.94 517.752H1620.71Z" fill="white"/>
<path d="M1779.4 632.95H1764.27V501.978H1783.23L1847.12 602.039L1849.35 601.72V501.978H1864.33V632.95H1848.24L1781.63 525.878L1779.4 526.196V632.95Z" fill="white"/>
<path d="M2014.26 634.861C2003.19 634.861 1993.47 632.392 1985.1 627.373C1976.7 622.274 1970.12 614.706 1965.34 604.588C1960.64 594.51 1958.33 582.122 1958.33 567.463C1958.33 552.725 1960.8 540.297 1965.82 530.179C1970.92 520.102 1977.93 512.573 1986.85 507.554C1995.86 502.575 2006.21 500.065 2017.92 500.065C2030.43 500.065 2040.75 502.376 2048.83 506.917C2056.88 511.378 2062.62 518.07 2066.04 526.993L2056 532.888H2053.77C2050.35 526.116 2045.73 521.217 2039.91 518.229C2034.06 515.282 2026.73 513.768 2017.92 513.768C1989.24 513.768 1974.9 531.693 1974.9 567.463C1974.9 586.066 1978.49 599.649 1985.74 608.253C1992.95 616.777 2003.03 620.999 2016.01 620.999C2028 620.999 2036.96 618.291 2042.94 612.873C2048.87 607.376 2051.86 598.772 2051.86 587.061V575.43H2014.58V563.161H2066.84V632.949H2052.5V615.423L2050.75 614.945C2047.24 621.637 2042.34 626.656 2036.09 629.922C2029.91 633.188 2022.62 634.861 2014.26 634.861Z" fill="white"/>
<path d="M2177.74 571.128V620.203H2244.51V632.95H2162.29V501.978H2243.07V514.565H2177.74V558.541H2235.42V571.128H2177.74Z" fill="white"/>
</svg>
