<svg width="343" height="142" viewBox="0 0 343 142" fill="none" xmlns="http://www.w3.org/2000/svg">
<mask id="mask0_14_181" style="mask-type:luminance" maskUnits="userSpaceOnUse" x="0" y="0" width="131" height="142">
<path d="M0 0H130.667V141.333H0V0Z" fill="white"/>
</mask>
<g mask="url(#mask0_14_181)">
<mask id="mask1_14_181" style="mask-type:luminance" maskUnits="userSpaceOnUse" x="-5" y="-3" width="138" height="149">
<path d="M-4.08337 6.0415L122.599 -2.896L132.453 136.755L5.77079 145.693L-4.08337 6.0415Z" fill="white"/>
</mask>
<g mask="url(#mask1_14_181)">
<mask id="mask2_14_181" style="mask-type:luminance" maskUnits="userSpaceOnUse" x="-5" y="-3" width="138" height="149">
<path d="M-4.08337 6.0415L122.599 -2.896L132.453 136.755L5.77079 145.693L-4.08337 6.0415Z" fill="white"/>
</mask>
<g mask="url(#mask2_14_181)">
<path d="M92.8281 125.739C96.4115 125.489 99.9375 124.901 103.406 123.979C106.875 123.052 110.224 121.802 113.453 120.229C116.682 118.661 119.734 116.797 122.604 114.635C125.474 112.479 127.094 111.333 129.5 108.667C128.057 111.047 127.484 112.067 125.766 114.26C124.047 116.448 122.203 118.531 120.234 120.5C118.266 122.474 116.182 124.317 113.995 126.041C111.807 127.76 109.521 129.349 107.141 130.797C104.76 132.244 102.307 133.547 99.7708 134.703C97.2344 135.859 94.6406 136.859 91.9896 137.703C89.3333 138.552 86.6406 139.234 83.901 139.76C81.1667 140.281 78.4115 140.64 75.6302 140.833C37.0521 143.557 3.57811 114.494 0.859361 75.9216C-1.8646 37.3434 27.1979 3.86947 65.776 1.14551C68.5521 0.947591 71.3333 0.916341 74.1146 1.05176C76.8958 1.18717 79.6615 1.48405 82.4062 1.94759C85.1562 2.41113 87.8646 3.04134 90.5365 3.8278C93.2083 4.61426 95.8229 5.56217 98.3802 6.66113C100.943 7.76009 103.427 9.01009 105.833 10.4059C108.245 11.807 110.563 13.3434 112.786 15.0153C115.016 16.6924 117.135 18.4893 119.146 20.4163C121.156 22.3486 123.047 24.3851 124.813 26.5413C122.057 24.2393 119.104 22.2236 115.958 20.4893C112.813 18.7549 109.531 17.3382 106.115 16.2341C102.698 15.1351 99.2031 14.3695 95.6406 13.9372C92.0729 13.5101 88.5 13.4216 84.9219 13.6768C53.9792 15.8643 30.6667 42.7184 32.8489 73.6611C35.0312 104.604 61.8854 127.922 92.8281 125.739Z" fill="#135A5E"/>
</g>
</g>
</g>
<mask id="mask3_14_181" style="mask-type:luminance" maskUnits="userSpaceOnUse" x="50" y="13" width="77" height="58">
<path d="M50.6666 13.333H126.667V70.6663H50.6666V13.333Z" fill="white"/>
</mask>
<g mask="url(#mask3_14_181)">
<mask id="mask4_14_181" style="mask-type:luminance" maskUnits="userSpaceOnUse" x="50" y="13" width="80" height="59">
<path d="M58.5 13.708L129.479 25.7965L121.755 71.1403L50.7812 59.057L58.5 13.708Z" fill="white"/>
</mask>
<g mask="url(#mask4_14_181)">
<mask id="mask5_14_181" style="mask-type:luminance" maskUnits="userSpaceOnUse" x="50" y="13" width="77" height="58">
<path d="M126.667 13.333H50.6666V70.6663H126.667V13.333Z" fill="white"/>
</mask>
<g mask="url(#mask5_14_181)">
<mask id="mask6_14_181" style="mask-type:luminance" maskUnits="userSpaceOnUse" x="57" y="45" width="15" height="15">
<path d="M57.3333 45.333H71.9999V59.9997H57.3333V45.333Z" fill="white"/>
</mask>
<g mask="url(#mask6_14_181)">
<mask id="mask7_14_181" style="mask-type:luminance" maskUnits="userSpaceOnUse" x="50" y="13" width="80" height="59">
<path d="M58.4999 13.708L129.479 25.7965L121.755 71.1403L50.7811 59.057L58.4999 13.708Z" fill="white"/>
</mask>
<g mask="url(#mask7_14_181)">
<mask id="mask8_14_181" style="mask-type:luminance" maskUnits="userSpaceOnUse" x="50" y="14" width="80" height="58">
<path d="M121.646 71.4372L50.6665 59.3538L58.3853 14.0049L129.364 26.0934L121.646 71.4372Z" fill="white"/>
</mask>
<g mask="url(#mask8_14_181)">
<path d="M59.203 51.2028C57.5207 54.5726 57.5311 57.1507 58.0467 58.9632C58.3488 60.0205 59.8488 59.9163 60.0207 58.833C60.8801 53.3486 65.854 48.8799 71.6249 45.458C66.9842 46.7653 62.5155 48.609 59.203 51.2028Z" fill="#349692"/>
</g>
</g>
</g>
<mask id="mask9_14_181" style="mask-type:luminance" maskUnits="userSpaceOnUse" x="50" y="23" width="76" height="37">
<path d="M50.6666 23.9995H125.333V59.9995H50.6666V23.9995Z" fill="white"/>
</mask>
<g mask="url(#mask9_14_181)">
<mask id="mask10_14_181" style="mask-type:luminance" maskUnits="userSpaceOnUse" x="50" y="13" width="80" height="59">
<path d="M58.5 13.708L129.479 25.7965L121.755 71.1403L50.7812 59.057L58.5 13.708Z" fill="white"/>
</mask>
<g mask="url(#mask10_14_181)">
<mask id="mask11_14_181" style="mask-type:luminance" maskUnits="userSpaceOnUse" x="50" y="14" width="80" height="58">
<path d="M121.646 71.4372L50.6666 59.3538L58.3854 14.0049L129.365 26.0934L121.646 71.4372Z" fill="white"/>
</mask>
<g mask="url(#mask11_14_181)">
<path d="M105.708 50.4372C100.687 51.0361 86.9791 52.0257 83.7656 56.2445C80.5573 60.4684 76.8698 50.0153 91.5208 45.6091C91.5208 45.6091 61.1041 38.6924 53.1093 58.4945C52.651 59.6299 50.8385 58.7549 51.1093 57.5622C52.2864 52.3903 54.4479 37.8486 86.6146 33.9893C108.771 31.3382 115.036 35.9842 124.5 26.1665C124.5 26.1665 125.625 48.0726 105.708 50.4372Z" fill="#135A5E"/>
</g>
</g>
</g>
<mask id="mask12_14_181" style="mask-type:luminance" maskUnits="userSpaceOnUse" x="62" y="45" width="12" height="14">
<path d="M62.6666 45.333H73.3333V58.6663H62.6666V45.333Z" fill="white"/>
</mask>
<g mask="url(#mask12_14_181)">
<mask id="mask13_14_181" style="mask-type:luminance" maskUnits="userSpaceOnUse" x="50" y="13" width="80" height="59">
<path d="M58.5 13.708L129.479 25.7965L121.755 71.1403L50.7812 59.057L58.5 13.708Z" fill="white"/>
</mask>
<g mask="url(#mask13_14_181)">
<mask id="mask14_14_181" style="mask-type:luminance" maskUnits="userSpaceOnUse" x="50" y="14" width="80" height="58">
<path d="M121.646 71.4372L50.6666 59.3538L58.3854 14.0049L129.365 26.0934L121.646 71.4372Z" fill="white"/>
</mask>
<g mask="url(#mask14_14_181)">
<path d="M63.4895 57.4474C63.8645 58.4787 65.3541 58.2703 65.4478 57.1766C65.7968 53.0724 68.453 49.3589 72.0572 46.1558C68.401 48.3172 65.1093 50.8849 63.026 53.8381C62.9218 55.2912 63.1353 56.4891 63.4895 57.4474Z" fill="#349692"/>
</g>
</g>
</g>
</g>
</g>
</g>
<path d="M139.146 63.3311V33.0186H152.083C154.385 33.0186 156.385 33.4456 158.083 34.2894C159.791 35.1227 161.104 36.3206 162.021 37.8727C162.948 39.43 163.416 41.2894 163.416 43.4561C163.416 45.68 162.906 47.5967 161.896 49.2061C160.896 50.805 159.484 52.0081 157.666 52.8102L163.937 63.3311H155.979L150.562 53.8936H146.021V63.3311H139.146ZM145.937 48.1019H151.166C152.875 48.1019 154.177 47.7061 155.083 46.9144C156 46.1123 156.458 44.9717 156.458 43.4977C156.458 42.029 156 40.8936 155.083 40.1019C154.177 39.3102 152.875 38.9144 151.166 38.9144H145.937V48.1019Z" fill="#0A0708"/>
<path d="M166.366 63.3311L178.386 33.0186H185.157L197.178 63.3311H189.824L187.782 58.1019H175.761L173.72 63.3311H166.366ZM177.532 52.6852H186.053L181.761 41.6019L177.532 52.6852Z" fill="#0A0708"/>
<path d="M219.94 63.3311V51.1227H208.086V63.3311H201.211V33.0186H208.086V44.6644H219.94V33.0186H226.836V63.3311H219.94Z" fill="#0A0708"/>
<path d="M234.105 63.3311V33.0186H239.938L250.73 48.7477L261.459 33.0186H267.251V63.3311H260.417V45.1019L253.063 55.8519H248.292L240.938 45.0602V63.3311H234.105Z" fill="#0A0708"/>
<path d="M271.28 63.3311L283.3 33.0186H290.071L302.092 63.3311H294.738L292.696 58.1019H280.675L278.634 63.3311H271.28ZM282.446 52.6852H290.967L286.675 41.6019L282.446 52.6852Z" fill="#0A0708"/>
<path d="M324.854 63.3311V51.1227H313V63.3311H306.125V33.0186H313V44.6644H324.854V33.0186H331.75V63.3311H324.854Z" fill="#0A0708"/>
<path d="M138.916 106.007V82.5903H153.125V85.3195H141.854V92.7153H152.291V95.4445H141.854V103.257H153.5V106.007H138.916Z" fill="#135A5E"/>
<path d="M159.353 106.007L167.728 94.0278L159.686 82.5903H163.207L169.582 91.8195L171.561 88.882L175.957 82.5903H179.394L171.394 93.9862L179.79 106.007H176.311L171.54 99.0903L169.582 96.2778L162.873 106.007H159.353Z" fill="#135A5E"/>
<path d="M197.265 106.444C195.541 106.444 193.953 106.142 192.494 105.549C191.047 104.939 189.797 104.09 188.744 103.007C187.687 101.924 186.869 100.648 186.286 99.1737C185.703 97.6893 185.411 96.0643 185.411 94.2987C185.411 92.5382 185.703 90.9132 186.286 89.4237C186.869 87.9393 187.687 86.6632 188.744 85.5903C189.797 84.507 191.047 83.6685 192.494 83.0695C193.953 82.4601 195.541 82.1528 197.265 82.1528C199.109 82.1528 200.807 82.4966 202.349 83.1737C203.901 83.856 205.229 84.8299 206.328 86.0903C207.437 87.3403 208.25 88.8299 208.765 90.5487H205.619C205.021 88.856 203.979 87.5226 202.494 86.5487C201.005 85.5799 199.291 85.0903 197.349 85.0903C195.609 85.0903 194.078 85.4862 192.744 86.2778C191.411 87.0591 190.354 88.1424 189.578 89.5278C188.812 90.9028 188.432 92.4966 188.432 94.2987C188.432 96.106 188.812 97.7049 189.578 99.0903C190.354 100.465 191.411 101.549 192.744 102.34C194.078 103.122 195.609 103.507 197.349 103.507C199.333 103.507 201.099 102.997 202.64 101.965C204.182 100.939 205.25 99.5435 205.849 97.7778H208.974C208.5 99.5174 207.703 101.028 206.578 102.319C205.453 103.611 204.088 104.627 202.494 105.361C200.896 106.08 199.151 106.444 197.265 106.444Z" fill="#135A5E"/>
<path d="M231.952 106.007V95.4653H219.535V106.007H216.598V82.5903H219.535V92.6528H231.952V82.5903H234.889V106.007H231.952Z" fill="#135A5E"/>
<path d="M241.276 106.007L250.922 82.5903H253.672L263.297 106.007H260.193L257.985 100.694H246.568L244.422 106.007H241.276ZM247.714 97.9445H256.881L252.297 86.6945L247.714 97.9445Z" fill="#135A5E"/>
<path d="M269.69 106.007V82.5903H272.461L285.419 100.924V82.5903H288.294V106.007H285.544L272.607 87.6737V106.007H269.69Z" fill="#135A5E"/>
<path d="M307.961 106.444C306.238 106.444 304.649 106.142 303.191 105.549C301.743 104.939 300.488 104.09 299.42 103.007C298.347 101.924 297.514 100.648 296.92 99.1737C296.336 97.6893 296.045 96.0643 296.045 94.2987C296.045 92.5382 296.336 90.9185 296.92 89.4445C297.503 87.9757 298.326 86.6945 299.399 85.6112C300.467 84.5174 301.717 83.6685 303.149 83.0695C304.592 82.4601 306.175 82.1528 307.899 82.1528C309.675 82.1528 311.321 82.481 312.836 83.132C314.363 83.7726 315.675 84.6737 316.774 85.8403C317.883 86.9966 318.68 88.3403 319.17 89.882H315.961C315.222 88.3716 314.159 87.1945 312.774 86.3612C311.399 85.5174 309.8 85.0903 307.982 85.0903C306.243 85.0903 304.701 85.4862 303.357 86.2778C302.008 87.0591 300.951 88.1424 300.191 89.5278C299.441 90.9028 299.066 92.4966 299.066 94.2987C299.066 96.106 299.446 97.7049 300.211 99.0903C300.988 100.465 302.05 101.549 303.399 102.34C304.743 103.122 306.284 103.507 308.024 103.507C309.607 103.507 311.008 103.194 312.232 102.569C313.467 101.944 314.467 101.085 315.232 99.9862C316.008 98.8768 316.493 97.5851 316.691 96.1112H307.149V93.2987H319.878C319.92 95.856 319.441 98.1268 318.441 100.111C317.451 102.085 316.055 103.632 314.253 104.757C312.461 105.882 310.363 106.444 307.961 106.444Z" fill="#135A5E"/>
<path d="M327.532 106.007V82.5903H341.741V85.3195H330.47V92.7153H340.907V95.4445H330.47V103.257H342.116V106.007H327.532Z" fill="#135A5E"/>
<mask id="mask15_14_181" style="mask-type:luminance" maskUnits="userSpaceOnUse" x="56" y="62" width="76" height="58">
<path d="M56 62.6665H132V120H56V62.6665Z" fill="white"/>
</mask>
<g mask="url(#mask15_14_181)">
<mask id="mask16_14_181" style="mask-type:luminance" maskUnits="userSpaceOnUse" x="57" y="62" width="79" height="58">
<path d="M57.099 74.375L128.177 62.9062L135.505 108.318L64.4271 119.792L57.099 74.375Z" fill="white"/>
</mask>
<g mask="url(#mask16_14_181)">
<mask id="mask17_14_181" style="mask-type:luminance" maskUnits="userSpaceOnUse" x="55" y="62" width="76" height="58">
<path d="M131 62.6665H55V120H131V62.6665Z" fill="white"/>
</mask>
<g mask="url(#mask17_14_181)">
<mask id="mask18_14_181" style="mask-type:luminance" maskUnits="userSpaceOnUse" x="63" y="73" width="15" height="17">
<path d="M63 73.333H77.6667V89.333H63V73.333Z" fill="white"/>
</mask>
<g mask="url(#mask18_14_181)">
<mask id="mask19_14_181" style="mask-type:luminance" maskUnits="userSpaceOnUse" x="56" y="62" width="79" height="58">
<path d="M56.099 74.3745L127.177 62.9058L134.505 108.317L63.4271 119.791L56.099 74.3745Z" fill="white"/>
</mask>
<g mask="url(#mask19_14_181)">
<mask id="mask20_14_181" style="mask-type:luminance" maskUnits="userSpaceOnUse" x="56" y="62" width="79" height="58">
<path d="M127.115 62.916L56.0365 74.3848L63.3646 119.796L134.448 108.327L127.115 62.916Z" fill="white"/>
</mask>
<g mask="url(#mask20_14_181)">
<path d="M64.5052 82.6086C62.849 79.2283 62.8802 76.645 63.4115 74.8377C63.724 73.7856 65.224 73.9002 65.3854 74.9888C66.2031 80.4731 71.1354 84.9888 76.875 88.4627C72.25 87.1138 67.7917 85.2336 64.5052 82.6086Z" fill="#349692"/>
</g>
</g>
</g>
<mask id="mask21_14_181" style="mask-type:luminance" maskUnits="userSpaceOnUse" x="56" y="74" width="75" height="36">
<path d="M56.3334 74.6665H130.521V109.333H56.3334V74.6665Z" fill="white"/>
</mask>
<g mask="url(#mask21_14_181)">
<mask id="mask22_14_181" style="mask-type:luminance" maskUnits="userSpaceOnUse" x="56" y="62" width="79" height="58">
<path d="M56.099 74.375L127.177 62.9062L134.505 108.318L63.4271 119.792L56.099 74.375Z" fill="white"/>
</mask>
<g mask="url(#mask22_14_181)">
<mask id="mask23_14_181" style="mask-type:luminance" maskUnits="userSpaceOnUse" x="56" y="62" width="79" height="58">
<path d="M127.115 62.9165L56.0365 74.3853L63.3646 119.797L134.448 108.328L127.115 62.9165Z" fill="white"/>
</mask>
<g mask="url(#mask23_14_181)">
<path d="M111.005 83.7759C105.99 83.1405 92.2865 82.0259 89.1094 77.7811C85.9375 73.5311 82.1563 83.9478 96.7709 88.4843C96.7709 88.4843 66.2969 95.1405 58.474 75.2655C58.0261 74.1249 56.2031 74.9843 56.4636 76.1822C57.599 81.3593 59.6354 95.9218 91.7657 100.057C113.901 102.906 120.12 99.2655 129.5 109.167C129.5 109.167 130.896 86.3124 111.005 83.7759Z" fill="#135A5E"/>
</g>
</g>
</g>
<mask id="mask24_14_181" style="mask-type:luminance" maskUnits="userSpaceOnUse" x="67" y="74" width="11" height="14">
<path d="M67 74.6665H77.6667V87.9998H67V74.6665Z" fill="white"/>
</mask>
<g mask="url(#mask24_14_181)">
<mask id="mask25_14_181" style="mask-type:luminance" maskUnits="userSpaceOnUse" x="56" y="62" width="79" height="58">
<path d="M56.099 74.375L127.177 62.9062L134.505 108.318L63.4271 119.792L56.099 74.375Z" fill="white"/>
</mask>
<g mask="url(#mask25_14_181)">
<mask id="mask26_14_181" style="mask-type:luminance" maskUnits="userSpaceOnUse" x="56" y="62" width="79" height="58">
<path d="M127.115 62.9165L56.0365 74.3853L63.3646 119.797L134.448 108.328L127.115 62.9165Z" fill="white"/>
</mask>
<g mask="url(#mask26_14_181)">
<path d="M68.8438 76.4007C69.224 75.3747 70.7136 75.5934 70.797 76.6872C71.1147 80.7965 73.7397 84.5309 77.3126 87.7653C73.6772 85.5726 70.4063 82.9788 68.349 80.0049C68.2553 78.5569 68.4845 77.359 68.8438 76.4007Z" fill="#349692"/>
</g>
</g>
</g>
</g>
</g>
</g>
<mask id="mask27_14_181" style="mask-type:luminance" maskUnits="userSpaceOnUse" x="69" y="60" width="21" height="19">
<path d="M69.776 60.0625H89.776V78.0625H69.776V60.0625Z" fill="white"/>
</mask>
<g mask="url(#mask27_14_181)">
<path d="M79.9218 77.646C79.8073 77.646 79.6927 77.62 79.5885 77.5679L79.5104 77.5314C79.4531 77.5054 79.401 77.4741 79.3541 77.4325C72.5989 72.0418 69.776 69.2606 69.776 65.9897C69.776 62.7241 72.3281 60.0679 75.4687 60.0679C77.2187 60.0679 78.8593 60.9116 79.9218 62.3022C80.9895 60.9116 82.625 60.0679 84.375 60.0679C87.5156 60.0679 90.0729 62.7241 90.0729 65.9897C90.0729 69.2033 86.7916 72.12 80.5104 77.422C80.4583 77.4637 80.401 77.5002 80.3385 77.5314L80.2604 77.5679C80.1562 77.62 80.0364 77.646 79.9218 77.646Z" fill="#349692"/>
</g>
</svg>
